<svg width="1223" height="272" viewBox="0 0 1223 272" fill="none" xmlns="http://www.w3.org/2000/svg">
<line x1="23.9958" y1="34.2449" x2="1209" y2="34.2449" stroke="white" stroke-width="1.5"/>
<line x1="24" y1="78" x2="1209" y2="78" stroke="white" stroke-width="2"/>
<line x1="23.9997" y1="119.002" x2="1209" y2="119.002" stroke="white" stroke-width="2.5"/>
<line x1="23.9997" y1="151.75" x2="1209" y2="151.75" stroke="white" stroke-width="3"/>
<line x1="23.9997" y1="192.499" x2="1209" y2="192.499" stroke="white" stroke-width="3.5"/>
<line x1="24" y1="234" x2="1209" y2="234" stroke="white" stroke-width="4"/>
<line opacity="0.85" x1="43.25" y1="20" x2="43.25" y2="253" stroke="white" stroke-width="4.5"/>
<line x1="1151" y1="20" x2="1151" y2="253" stroke="white" stroke-width="2"/>
<line x1="1106" y1="20" x2="1106" y2="253" stroke="white" stroke-width="2"/>
<line x1="1058" y1="20" x2="1058" y2="253" stroke="white" stroke-width="2"/>
<line x1="1008" y1="20" x2="1008" y2="253" stroke="white" stroke-width="2"/>
<line x1="1194" y1="20" x2="1194" y2="253" stroke="white" stroke-width="2"/>
<line x1="899" y1="20" x2="899" y2="253" stroke="white" stroke-width="2"/>
<line x1="838" y1="20" x2="838" y2="253" stroke="white" stroke-width="2"/>
<line x1="775" y1="20" x2="775" y2="253" stroke="white" stroke-width="2"/>
<line x1="138" y1="20" x2="138" y2="253" stroke="white" stroke-width="2"/>
<line x1="708" y1="20" x2="708" y2="253" stroke="white" stroke-width="2"/>
<line x1="320" y1="20" x2="320" y2="253" stroke="white" stroke-width="2"/>
<line x1="954" y1="20" x2="954" y2="253" stroke="white" stroke-width="2"/>
<line x1="638" y1="20" x2="638" y2="253" stroke="white" stroke-width="2"/>
<line x1="231" y1="20" x2="231" y2="253" stroke="white" stroke-width="2"/>
<line x1="407" y1="20" x2="407" y2="253" stroke="white" stroke-width="2"/>
<line x1="320" y1="20" x2="320" y2="253" stroke="white" stroke-width="2"/>
<line x1="565" y1="20" x2="565" y2="253" stroke="white" stroke-width="2"/>
<line x1="486" y1="20" x2="486" y2="253" stroke="white" stroke-width="2"/>
<path d="M447 128.5C451.722 128.5 455.5 132.108 455.5 136.5C455.5 140.892 451.722 144.5 447 144.5C442.278 144.5 438.5 140.892 438.5 136.5C438.5 132.108 442.278 128.5 447 128.5Z" fill="#6A6868" stroke="white"/>
<path d="M926 91.5C930.722 91.5 934.5 95.1083 934.5 99.5C934.5 103.892 930.722 107.5 926 107.5C921.278 107.5 917.5 103.892 917.5 99.5C917.5 95.1083 921.278 91.5 926 91.5Z" fill="#6A6868" stroke="white"/>
<path d="M1174 126.5C1178.72 126.5 1182.5 130.108 1182.5 134.5C1182.5 138.892 1178.72 142.5 1174 142.5C1169.28 142.5 1165.5 138.892 1165.5 134.5C1165.5 130.108 1169.28 126.5 1174 126.5Z" fill="#6A6868" stroke="white"/>
<path d="M926 163.5C930.722 163.5 934.5 167.108 934.5 171.5C934.5 175.892 930.722 179.5 926 179.5C921.278 179.5 917.5 175.892 917.5 171.5C917.5 167.108 921.278 163.5 926 163.5Z" fill="#6A6868" stroke="white"/>
<path d="M277 128.5C281.722 128.5 285.5 132.108 285.5 136.5C285.5 140.892 281.722 144.5 277 144.5C272.278 144.5 268.5 140.892 268.5 136.5C268.5 132.108 272.278 128.5 277 128.5Z" fill="#6A6868" stroke="white"/>
<path d="M602 128.5C606.722 128.5 610.5 132.108 610.5 136.5C610.5 140.892 606.722 144.5 602 144.5C597.278 144.5 593.5 140.892 593.5 136.5C593.5 132.108 597.278 128.5 602 128.5Z" fill="#6A6868" stroke="white"/>
<path d="M741 128.5C745.722 128.5 749.5 132.108 749.5 136.5C749.5 140.892 745.722 144.5 741 144.5C736.278 144.5 732.5 140.892 732.5 136.5C732.5 132.108 736.278 128.5 741 128.5Z" fill="#6A6868" stroke="white"/>
<path d="M1081 126.5C1085.72 126.5 1089.5 130.108 1089.5 134.5C1089.5 138.892 1085.72 142.5 1081 142.5C1076.28 142.5 1072.5 138.892 1072.5 134.5C1072.5 130.108 1076.28 126.5 1081 126.5Z" fill="#6A6868" stroke="white"/>
</svg>
