<svg width="39" height="37" viewBox="0 0 39 37" fill="none" xmlns="http://www.w3.org/2000/svg">
<g filter="url(#filter0_d_2026_81)">
<ellipse cx="19.3137" cy="14.0261" rx="15.3137" ry="14.0261" fill="#FF8906"/>
<path d="M19.3135 0.5C27.5371 0.5 34.1279 6.59657 34.1279 14.0264C34.1277 21.456 27.537 27.5518 19.3135 27.5518C11.0901 27.5516 4.50019 21.456 4.5 14.0264C4.5 6.59664 11.09 0.500123 19.3135 0.5Z" stroke="black"/>
</g>
<path d="M22.0795 14H21.0227C20.9602 13.696 20.8509 13.429 20.6946 13.1989C20.5412 12.9688 20.3537 12.7756 20.1321 12.6193C19.9134 12.4602 19.6705 12.3409 19.4034 12.2614C19.1364 12.1818 18.858 12.142 18.5682 12.142C18.0398 12.142 17.5611 12.2756 17.1321 12.5426C16.706 12.8097 16.3665 13.2031 16.1136 13.723C15.8636 14.2429 15.7386 14.8807 15.7386 15.6364C15.7386 16.392 15.8636 17.0298 16.1136 17.5497C16.3665 18.0696 16.706 18.4631 17.1321 18.7301C17.5611 18.9972 18.0398 19.1307 18.5682 19.1307C18.858 19.1307 19.1364 19.0909 19.4034 19.0114C19.6705 18.9318 19.9134 18.8139 20.1321 18.6577C20.3537 18.4986 20.5412 18.304 20.6946 18.0739C20.8509 17.8409 20.9602 17.5739 21.0227 17.2727H22.0795C22 17.7187 21.8551 18.1179 21.6449 18.4702C21.4347 18.8224 21.1733 19.1222 20.8608 19.3693C20.5483 19.6136 20.1974 19.7997 19.8082 19.9276C19.4219 20.0554 19.0085 20.1193 18.5682 20.1193C17.8239 20.1193 17.1619 19.9375 16.5824 19.5739C16.0028 19.2102 15.5469 18.6932 15.2145 18.0227C14.8821 17.3523 14.7159 16.5568 14.7159 15.6364C14.7159 14.7159 14.8821 13.9205 15.2145 13.25C15.5469 12.5795 16.0028 12.0625 16.5824 11.6989C17.1619 11.3352 17.8239 11.1534 18.5682 11.1534C19.0085 11.1534 19.4219 11.2173 19.8082 11.3452C20.1974 11.473 20.5483 11.6605 20.8608 11.9077C21.1733 12.152 21.4347 12.4503 21.6449 12.8026C21.8551 13.152 22 13.5511 22.0795 14Z" fill="black"/>
<defs>
<filter id="filter0_d_2026_81" x="0" y="0" width="38.6274" height="36.0521" filterUnits="userSpaceOnUse" color-interpolation-filters="sRGB">
<feFlood flood-opacity="0" result="BackgroundImageFix"/>
<feColorMatrix in="SourceAlpha" type="matrix" values="0 0 0 0 0 0 0 0 0 0 0 0 0 0 0 0 0 0 127 0" result="hardAlpha"/>
<feOffset dy="4"/>
<feGaussianBlur stdDeviation="2"/>
<feComposite in2="hardAlpha" operator="out"/>
<feColorMatrix type="matrix" values="0 0 0 0 0 0 0 0 0 0 0 0 0 0 0 0 0 0 0.25 0"/>
<feBlend mode="normal" in2="BackgroundImageFix" result="effect1_dropShadow_2026_81"/>
<feBlend mode="normal" in="SourceGraphic" in2="effect1_dropShadow_2026_81" result="shape"/>
</filter>
</defs>
</svg>
