<svg width="39" height="37" viewBox="0 0 39 37" fill="none" xmlns="http://www.w3.org/2000/svg">
<g filter="url(#filter0_d_2026_18)">
<ellipse cx="19.3137" cy="14.0261" rx="15.3137" ry="14.0261" fill="#FF8906"/>
<path d="M19.3135 0.5C27.5371 0.5 34.1279 6.59657 34.1279 14.0264C34.1277 21.456 27.537 27.5518 19.3135 27.5518C11.0901 27.5516 4.50019 21.456 4.5 14.0264C4.5 6.59664 11.09 0.500123 19.3135 0.5Z" stroke="black"/>
</g>
<path d="M19.0795 13H18.0227C17.9602 12.696 17.8509 12.429 17.6946 12.1989C17.5412 11.9688 17.3537 11.7756 17.1321 11.6193C16.9134 11.4602 16.6705 11.3409 16.4034 11.2614C16.1364 11.1818 15.858 11.142 15.5682 11.142C15.0398 11.142 14.5611 11.2756 14.1321 11.5426C13.706 11.8097 13.3665 12.2031 13.1136 12.723C12.8636 13.2429 12.7386 13.8807 12.7386 14.6364C12.7386 15.392 12.8636 16.0298 13.1136 16.5497C13.3665 17.0696 13.706 17.4631 14.1321 17.7301C14.5611 17.9972 15.0398 18.1307 15.5682 18.1307C15.858 18.1307 16.1364 18.0909 16.4034 18.0114C16.6705 17.9318 16.9134 17.8139 17.1321 17.6577C17.3537 17.4986 17.5412 17.304 17.6946 17.0739C17.8509 16.8409 17.9602 16.5739 18.0227 16.2727H19.0795C19 16.7187 18.8551 17.1179 18.6449 17.4702C18.4347 17.8224 18.1733 18.1222 17.8608 18.3693C17.5483 18.6136 17.1974 18.7997 16.8082 18.9276C16.4219 19.0554 16.0085 19.1193 15.5682 19.1193C14.8239 19.1193 14.1619 18.9375 13.5824 18.5739C13.0028 18.2102 12.5469 17.6932 12.2145 17.0227C11.8821 16.3523 11.7159 15.5568 11.7159 14.6364C11.7159 13.7159 11.8821 12.9205 12.2145 12.25C12.5469 11.5795 13.0028 11.0625 13.5824 10.6989C14.1619 10.3352 14.8239 10.1534 15.5682 10.1534C16.0085 10.1534 16.4219 10.2173 16.8082 10.3452C17.1974 10.473 17.5483 10.6605 17.8608 10.9077C18.1733 11.152 18.4347 11.4503 18.6449 11.8026C18.8551 12.152 19 12.5511 19.0795 13ZM23.9066 19L25.3384 10.2727H26.1907L24.7589 19H23.9066ZM19.935 16.5795L20.0714 15.7273H26.5827L26.4464 16.5795H19.935ZM20.8384 19L22.2702 10.2727H23.1225L21.6907 19H20.8384ZM20.4464 13.5455L20.5827 12.6932H27.0941L26.9577 13.5455H20.4464Z" fill="black"/>
<defs>
<filter id="filter0_d_2026_18" x="0" y="0" width="38.6274" height="36.0521" filterUnits="userSpaceOnUse" color-interpolation-filters="sRGB">
<feFlood flood-opacity="0" result="BackgroundImageFix"/>
<feColorMatrix in="SourceAlpha" type="matrix" values="0 0 0 0 0 0 0 0 0 0 0 0 0 0 0 0 0 0 127 0" result="hardAlpha"/>
<feOffset dy="4"/>
<feGaussianBlur stdDeviation="2"/>
<feComposite in2="hardAlpha" operator="out"/>
<feColorMatrix type="matrix" values="0 0 0 0 0 0 0 0 0 0 0 0 0 0 0 0 0 0 0.25 0"/>
<feBlend mode="normal" in2="BackgroundImageFix" result="effect1_dropShadow_2026_18"/>
<feBlend mode="normal" in="SourceGraphic" in2="effect1_dropShadow_2026_18" result="shape"/>
</filter>
</defs>
</svg>
