<svg width="39" height="37" viewBox="0 0 39 37" fill="none" xmlns="http://www.w3.org/2000/svg">
<g filter="url(#filter0_d_2026_54)">
<ellipse cx="19.3137" cy="14.0261" rx="15.3137" ry="14.0261" fill="#FF8906"/>
<path d="M19.3135 0.5C27.5371 0.5 34.1279 6.59657 34.1279 14.0264C34.1277 21.456 27.537 27.5518 19.3135 27.5518C11.0901 27.5516 4.50019 21.456 4.5 14.0264C4.5 6.59664 11.09 0.500123 19.3135 0.5Z" stroke="black"/>
</g>
<path d="M21.0227 12C20.929 11.7131 20.8054 11.456 20.652 11.2287C20.5014 10.9986 20.321 10.8026 20.1108 10.6406C19.9034 10.4787 19.6676 10.3551 19.4034 10.2699C19.1392 10.1847 18.8494 10.142 18.5341 10.142C18.017 10.142 17.5469 10.2756 17.1236 10.5426C16.7003 10.8097 16.3636 11.2031 16.1136 11.723C15.8636 12.2429 15.7386 12.8807 15.7386 13.6364C15.7386 14.392 15.8651 15.0298 16.1179 15.5497C16.3707 16.0696 16.7131 16.4631 17.1449 16.7301C17.5767 16.9972 18.0625 17.1307 18.6023 17.1307C19.1023 17.1307 19.5426 17.0241 19.9233 16.8111C20.3068 16.5952 20.6051 16.2912 20.8182 15.8991C21.0341 15.5043 21.142 15.0398 21.142 14.5057L21.4659 14.5739H18.8409V13.6364H22.1648V14.5739C22.1648 15.2926 22.0114 15.9176 21.7045 16.4489C21.4006 16.9801 20.9801 17.392 20.4432 17.6847C19.9091 17.9744 19.2955 18.1193 18.6023 18.1193C17.8295 18.1193 17.1506 17.9375 16.5653 17.5739C15.983 17.2102 15.5284 16.6932 15.2017 16.0227C14.8778 15.3523 14.7159 14.5568 14.7159 13.6364C14.7159 12.946 14.8082 12.3253 14.9929 11.7741C15.1804 11.2202 15.4446 10.7486 15.7855 10.3594C16.1264 9.97017 16.5298 9.67188 16.9957 9.46449C17.4616 9.2571 17.9744 9.15341 18.5341 9.15341C18.9943 9.15341 19.4233 9.22301 19.821 9.36222C20.2216 9.49858 20.5781 9.69318 20.8906 9.94602C21.206 10.196 21.4688 10.4957 21.679 10.8452C21.8892 11.1918 22.0341 11.5767 22.1136 12H21.0227Z" fill="black"/>
<defs>
<filter id="filter0_d_2026_54" x="0" y="0" width="38.6274" height="36.0521" filterUnits="userSpaceOnUse" color-interpolation-filters="sRGB">
<feFlood flood-opacity="0" result="BackgroundImageFix"/>
<feColorMatrix in="SourceAlpha" type="matrix" values="0 0 0 0 0 0 0 0 0 0 0 0 0 0 0 0 0 0 127 0" result="hardAlpha"/>
<feOffset dy="4"/>
<feGaussianBlur stdDeviation="2"/>
<feComposite in2="hardAlpha" operator="out"/>
<feColorMatrix type="matrix" values="0 0 0 0 0 0 0 0 0 0 0 0 0 0 0 0 0 0 0.25 0"/>
<feBlend mode="normal" in2="BackgroundImageFix" result="effect1_dropShadow_2026_54"/>
<feBlend mode="normal" in="SourceGraphic" in2="effect1_dropShadow_2026_54" result="shape"/>
</filter>
</defs>
</svg>
