<svg width="39" height="37" viewBox="0 0 39 37" fill="none" xmlns="http://www.w3.org/2000/svg">
<g filter="url(#filter0_d_2026_99)">
<ellipse cx="19.3137" cy="14.0261" rx="15.3137" ry="14.0261" fill="#FF8906"/>
<path d="M19.3135 0.5C27.5371 0.5 34.1279 6.59657 34.1279 14.0264C34.1277 21.456 27.537 27.5518 19.3135 27.5518C11.0901 27.5516 4.50019 21.456 4.5 14.0264C4.5 6.59664 11.09 0.500123 19.3135 0.5Z" stroke="black"/>
</g>
<path d="M15.75 19H13.0568V10.2727H15.8693C16.7159 10.2727 17.4403 10.4474 18.0426 10.7969C18.6449 11.1435 19.1065 11.642 19.4276 12.2926C19.7486 12.9403 19.9091 13.7159 19.9091 14.6193C19.9091 15.5284 19.7472 16.3111 19.4233 16.9673C19.0994 17.6207 18.6278 18.1236 18.0085 18.4759C17.3892 18.8253 16.6364 19 15.75 19ZM14.1136 18.0625H15.6818C16.4034 18.0625 17.0014 17.9233 17.4759 17.6449C17.9503 17.3665 18.304 16.9702 18.5369 16.456C18.7699 15.9418 18.8864 15.3295 18.8864 14.6193C18.8864 13.9148 18.7713 13.3082 18.5412 12.7997C18.3111 12.2884 17.9673 11.8963 17.5099 11.6236C17.0526 11.348 16.483 11.2102 15.8011 11.2102H14.1136V18.0625ZM24.8011 19L26.233 10.2727H27.0852L25.6534 19H24.8011ZM20.8295 16.5795L20.9659 15.7273H27.4773L27.3409 16.5795H20.8295ZM21.733 19L23.1648 10.2727H24.017L22.5852 19H21.733ZM21.3409 13.5455L21.4773 12.6932H27.9886L27.8523 13.5455H21.3409Z" fill="black"/>
<defs>
<filter id="filter0_d_2026_99" x="0" y="0" width="38.6274" height="36.0521" filterUnits="userSpaceOnUse" color-interpolation-filters="sRGB">
<feFlood flood-opacity="0" result="BackgroundImageFix"/>
<feColorMatrix in="SourceAlpha" type="matrix" values="0 0 0 0 0 0 0 0 0 0 0 0 0 0 0 0 0 0 127 0" result="hardAlpha"/>
<feOffset dy="4"/>
<feGaussianBlur stdDeviation="2"/>
<feComposite in2="hardAlpha" operator="out"/>
<feColorMatrix type="matrix" values="0 0 0 0 0 0 0 0 0 0 0 0 0 0 0 0 0 0 0.25 0"/>
<feBlend mode="normal" in2="BackgroundImageFix" result="effect1_dropShadow_2026_99"/>
<feBlend mode="normal" in="SourceGraphic" in2="effect1_dropShadow_2026_99" result="shape"/>
</filter>
</defs>
</svg>
