<svg width="39" height="37" viewBox="0 0 39 37" fill="none" xmlns="http://www.w3.org/2000/svg">
<g filter="url(#filter0_d_2026_41)">
<ellipse cx="19.3137" cy="14.0261" rx="15.3137" ry="14.0261" fill="#FF8906"/>
<path d="M19.3135 0.5C27.5371 0.5 34.1279 6.59657 34.1279 14.0264C34.1277 21.456 27.537 27.5518 19.3135 27.5518C11.0901 27.5516 4.50019 21.456 4.5 14.0264C4.5 6.59664 11.09 0.500123 19.3135 0.5Z" stroke="black"/>
</g>
<path d="M20.4063 12.5H19.4375C19.3802 12.2214 19.2799 11.9766 19.1367 11.7656C18.9961 11.5547 18.8242 11.3776 18.6211 11.2344C18.4206 11.0885 18.1979 10.9792 17.9531 10.9062C17.7083 10.8333 17.4531 10.7969 17.1875 10.7969C16.7031 10.7969 16.2643 10.9193 15.8711 11.1641C15.4805 11.4089 15.1693 11.7695 14.9375 12.2461C14.7083 12.7227 14.5938 13.3073 14.5938 14C14.5938 14.6927 14.7083 15.2773 14.9375 15.7539C15.1693 16.2305 15.4805 16.5911 15.8711 16.8359C16.2643 17.0807 16.7031 17.2031 17.1875 17.2031C17.4531 17.2031 17.7083 17.1667 17.9531 17.0937C18.1979 17.0208 18.4206 16.9128 18.6211 16.7695C18.8242 16.6237 18.9961 16.4453 19.1367 16.2344C19.2799 16.0208 19.3802 15.776 19.4375 15.5H20.4063C20.3333 15.9089 20.2005 16.2747 20.0078 16.5977C19.8151 16.9206 19.5755 17.1953 19.2891 17.4219C19.0026 17.6458 18.681 17.8164 18.3242 17.9336C17.9701 18.0508 17.5911 18.1094 17.1875 18.1094C16.5052 18.1094 15.8984 17.9427 15.3672 17.6094C14.8359 17.276 14.418 16.8021 14.1133 16.1875C13.8086 15.5729 13.6563 14.8437 13.6563 14C13.6563 13.1562 13.8086 12.4271 14.1133 11.8125C14.418 11.1979 14.8359 10.724 15.3672 10.3906C15.8984 10.0573 16.5052 9.89062 17.1875 9.89062C17.5911 9.89062 17.9701 9.94922 18.3242 10.0664C18.681 10.1836 19.0026 10.3555 19.2891 10.582C19.5755 10.806 19.8151 11.0794 20.0078 11.4023C20.2005 11.7227 20.3333 12.0885 20.4063 12.5ZM24.8311 18L26.1436 10H26.9248L25.6123 18H24.8311ZM21.1904 15.7812L21.3154 15H27.2842L27.1592 15.7812H21.1904ZM22.0186 18L23.3311 10H24.1123L22.7998 18H22.0186ZM21.6592 13L21.7842 12.2187H27.7529L27.6279 13H21.6592Z" fill="black"/>
<defs>
<filter id="filter0_d_2026_41" x="0" y="0" width="38.6274" height="36.0521" filterUnits="userSpaceOnUse" color-interpolation-filters="sRGB">
<feFlood flood-opacity="0" result="BackgroundImageFix"/>
<feColorMatrix in="SourceAlpha" type="matrix" values="0 0 0 0 0 0 0 0 0 0 0 0 0 0 0 0 0 0 127 0" result="hardAlpha"/>
<feOffset dy="4"/>
<feGaussianBlur stdDeviation="2"/>
<feComposite in2="hardAlpha" operator="out"/>
<feColorMatrix type="matrix" values="0 0 0 0 0 0 0 0 0 0 0 0 0 0 0 0 0 0 0.25 0"/>
<feBlend mode="normal" in2="BackgroundImageFix" result="effect1_dropShadow_2026_41"/>
<feBlend mode="normal" in="SourceGraphic" in2="effect1_dropShadow_2026_41" result="shape"/>
</filter>
</defs>
</svg>
