<svg width="39" height="37" viewBox="0 0 39 37" fill="none" xmlns="http://www.w3.org/2000/svg">
<g filter="url(#filter0_d_2026_59)">
<ellipse cx="19.3137" cy="14.0261" rx="15.3137" ry="14.0261" fill="#FF8906"/>
<path d="M19.3135 0.5C27.5371 0.5 34.1279 6.59657 34.1279 14.0264C34.1277 21.456 27.537 27.5518 19.3135 27.5518C11.0901 27.5516 4.50019 21.456 4.5 14.0264C4.5 6.59664 11.09 0.500123 19.3135 0.5Z" stroke="black"/>
</g>
<path d="M16.9688 18V10H19.7656C20.3229 10 20.7826 10.0964 21.1445 10.2891C21.5065 10.4792 21.776 10.7357 21.9531 11.0586C22.1302 11.3789 22.2188 11.7344 22.2188 12.125C22.2188 12.4687 22.1576 12.7526 22.0352 12.9766C21.9154 13.2005 21.7565 13.3776 21.5586 13.5078C21.3633 13.638 21.151 13.7344 20.9219 13.7969V13.875C21.1667 13.8906 21.4128 13.9766 21.6602 14.1328C21.9076 14.2891 22.1146 14.513 22.2813 14.8047C22.4479 15.0964 22.5312 15.4531 22.5312 15.875C22.5312 16.276 22.4401 16.6367 22.2578 16.957C22.0755 17.2773 21.7878 17.5312 21.3945 17.7187C21.0013 17.9062 20.4896 18 19.8594 18H16.9688ZM17.9375 17.1406H19.8594C20.4922 17.1406 20.9414 17.0182 21.207 16.7734C21.4753 16.526 21.6094 16.2266 21.6094 15.875C21.6094 15.6042 21.5404 15.3542 21.4023 15.125C21.2643 14.8932 21.0677 14.7083 20.8125 14.5703C20.5573 14.4297 20.2552 14.3594 19.9063 14.3594H17.9375V17.1406ZM17.9375 13.5156H19.7344C20.026 13.5156 20.2891 13.4583 20.5234 13.3437C20.7604 13.2292 20.9479 13.0677 21.0859 12.8594C21.2266 12.651 21.2969 12.4062 21.2969 12.125C21.2969 11.7734 21.1745 11.4753 20.9297 11.2305C20.6849 10.9831 20.2969 10.8594 19.7656 10.8594H17.9375V13.5156Z" fill="black"/>
<defs>
<filter id="filter0_d_2026_59" x="0" y="0" width="38.6274" height="36.0521" filterUnits="userSpaceOnUse" color-interpolation-filters="sRGB">
<feFlood flood-opacity="0" result="BackgroundImageFix"/>
<feColorMatrix in="SourceAlpha" type="matrix" values="0 0 0 0 0 0 0 0 0 0 0 0 0 0 0 0 0 0 127 0" result="hardAlpha"/>
<feOffset dy="4"/>
<feGaussianBlur stdDeviation="2"/>
<feComposite in2="hardAlpha" operator="out"/>
<feColorMatrix type="matrix" values="0 0 0 0 0 0 0 0 0 0 0 0 0 0 0 0 0 0 0.25 0"/>
<feBlend mode="normal" in2="BackgroundImageFix" result="effect1_dropShadow_2026_59"/>
<feBlend mode="normal" in="SourceGraphic" in2="effect1_dropShadow_2026_59" result="shape"/>
</filter>
</defs>
</svg>
