<svg width="39" height="37" viewBox="0 0 39 37" fill="none" xmlns="http://www.w3.org/2000/svg">
<g filter="url(#filter0_d_2026_21)">
<ellipse cx="19.3137" cy="14.0261" rx="15.3137" ry="14.0261" fill="#FF8906"/>
<path d="M19.3135 0.5C27.5371 0.5 34.1279 6.59657 34.1279 14.0264C34.1277 21.456 27.537 27.5518 19.3135 27.5518C11.0901 27.5516 4.50019 21.456 4.5 14.0264C4.5 6.59664 11.09 0.500123 19.3135 0.5Z" stroke="black"/>
</g>
<path d="M18.75 18H16.0568V9.27273H18.8693C19.7159 9.27273 20.4403 9.44744 21.0426 9.79688C21.6449 10.1435 22.1065 10.642 22.4276 11.2926C22.7486 11.9403 22.9091 12.7159 22.9091 13.6193C22.9091 14.5284 22.7472 15.3111 22.4233 15.9673C22.0994 16.6207 21.6278 17.1236 21.0085 17.4759C20.3892 17.8253 19.6364 18 18.75 18ZM17.1136 17.0625H18.6818C19.4034 17.0625 20.0014 16.9233 20.4759 16.6449C20.9503 16.3665 21.304 15.9702 21.5369 15.456C21.7699 14.9418 21.8864 14.3295 21.8864 13.6193C21.8864 12.9148 21.7713 12.3082 21.5412 11.7997C21.3111 11.2884 20.9673 10.8963 20.5099 10.6236C20.0526 10.348 19.483 10.2102 18.8011 10.2102H17.1136V17.0625Z" fill="black"/>
<defs>
<filter id="filter0_d_2026_21" x="0" y="0" width="38.6274" height="36.0521" filterUnits="userSpaceOnUse" color-interpolation-filters="sRGB">
<feFlood flood-opacity="0" result="BackgroundImageFix"/>
<feColorMatrix in="SourceAlpha" type="matrix" values="0 0 0 0 0 0 0 0 0 0 0 0 0 0 0 0 0 0 127 0" result="hardAlpha"/>
<feOffset dy="4"/>
<feGaussianBlur stdDeviation="2"/>
<feComposite in2="hardAlpha" operator="out"/>
<feColorMatrix type="matrix" values="0 0 0 0 0 0 0 0 0 0 0 0 0 0 0 0 0 0 0.25 0"/>
<feBlend mode="normal" in2="BackgroundImageFix" result="effect1_dropShadow_2026_21"/>
<feBlend mode="normal" in="SourceGraphic" in2="effect1_dropShadow_2026_21" result="shape"/>
</filter>
</defs>
</svg>
