<svg width="39" height="37" viewBox="0 0 39 37" fill="none" xmlns="http://www.w3.org/2000/svg">
<g filter="url(#filter0_d_2026_77)">
<ellipse cx="19.3137" cy="14.0261" rx="15.3137" ry="14.0261" fill="#FF8906"/>
<path d="M19.3135 0.5C27.5371 0.5 34.1279 6.59657 34.1279 14.0264C34.1277 21.456 27.537 27.5518 19.3135 27.5518C11.0901 27.5516 4.50019 21.456 4.5 14.0264C4.5 6.59664 11.09 0.500123 19.3135 0.5Z" stroke="black"/>
</g>
<path d="M21.4375 13.5C21.3516 13.237 21.2383 13.0013 21.0977 12.793C20.9596 12.582 20.7943 12.4023 20.6016 12.2539C20.4115 12.1055 20.1953 11.9922 19.9531 11.9141C19.7109 11.8359 19.4453 11.7969 19.1562 11.7969C18.6823 11.7969 18.2513 11.9193 17.8633 12.1641C17.4753 12.4089 17.1667 12.7695 16.9375 13.2461C16.7083 13.7227 16.5938 14.3073 16.5938 15C16.5938 15.6927 16.7096 16.2773 16.9414 16.7539C17.1732 17.2305 17.487 17.5911 17.8828 17.8359C18.2786 18.0807 18.724 18.2031 19.2188 18.2031C19.6771 18.2031 20.0807 18.1055 20.4297 17.9102C20.7813 17.7122 21.0547 17.4336 21.25 17.0742C21.4479 16.7122 21.5469 16.2865 21.5469 15.7969L21.8438 15.8594H19.4375V15H22.4844V15.8594C22.4844 16.5182 22.3438 17.0911 22.0625 17.5781C21.7839 18.0651 21.3984 18.4427 20.9062 18.7109C20.4167 18.9766 19.8542 19.1094 19.2188 19.1094C18.5104 19.1094 17.888 18.9427 17.3516 18.6094C16.8177 18.276 16.401 17.8021 16.1016 17.1875C15.8047 16.5729 15.6563 15.8437 15.6563 15C15.6563 14.3672 15.7409 13.7982 15.9102 13.293C16.082 12.7852 16.3242 12.3529 16.6367 11.9961C16.9492 11.6393 17.319 11.3659 17.7461 11.1758C18.1732 10.9857 18.6432 10.8906 19.1562 10.8906C19.5781 10.8906 19.9714 10.9544 20.3359 11.082C20.7031 11.207 21.0299 11.3854 21.3164 11.6172C21.6055 11.8464 21.8464 12.1211 22.0391 12.4414C22.2318 12.7591 22.3646 13.112 22.4375 13.5H21.4375Z" fill="black"/>
<defs>
<filter id="filter0_d_2026_77" x="0" y="0" width="38.6274" height="36.0521" filterUnits="userSpaceOnUse" color-interpolation-filters="sRGB">
<feFlood flood-opacity="0" result="BackgroundImageFix"/>
<feColorMatrix in="SourceAlpha" type="matrix" values="0 0 0 0 0 0 0 0 0 0 0 0 0 0 0 0 0 0 127 0" result="hardAlpha"/>
<feOffset dy="4"/>
<feGaussianBlur stdDeviation="2"/>
<feComposite in2="hardAlpha" operator="out"/>
<feColorMatrix type="matrix" values="0 0 0 0 0 0 0 0 0 0 0 0 0 0 0 0 0 0 0.25 0"/>
<feBlend mode="normal" in2="BackgroundImageFix" result="effect1_dropShadow_2026_77"/>
<feBlend mode="normal" in="SourceGraphic" in2="effect1_dropShadow_2026_77" result="shape"/>
</filter>
</defs>
</svg>
