<svg width="39" height="37" viewBox="0 0 39 37" fill="none" xmlns="http://www.w3.org/2000/svg">
<g filter="url(#filter0_d_2026_3)">
<ellipse cx="19.3137" cy="14.0261" rx="15.3137" ry="14.0261" fill="#FF8906"/>
<path d="M19.3135 0.5C27.5371 0.5 34.1279 6.59657 34.1279 14.0264C34.1277 21.456 27.537 27.5518 19.3135 27.5518C11.0901 27.5516 4.50019 21.456 4.5 14.0264C4.5 6.59664 11.09 0.500123 19.3135 0.5Z" stroke="black"/>
</g>
<path d="M22.0795 12H21.0227C20.9602 11.696 20.8509 11.429 20.6946 11.1989C20.5412 10.9688 20.3537 10.7756 20.1321 10.6193C19.9134 10.4602 19.6705 10.3409 19.4034 10.2614C19.1364 10.1818 18.858 10.142 18.5682 10.142C18.0398 10.142 17.5611 10.2756 17.1321 10.5426C16.706 10.8097 16.3665 11.2031 16.1136 11.723C15.8636 12.2429 15.7386 12.8807 15.7386 13.6364C15.7386 14.392 15.8636 15.0298 16.1136 15.5497C16.3665 16.0696 16.706 16.4631 17.1321 16.7301C17.5611 16.9972 18.0398 17.1307 18.5682 17.1307C18.858 17.1307 19.1364 17.0909 19.4034 17.0114C19.6705 16.9318 19.9134 16.8139 20.1321 16.6577C20.3537 16.4986 20.5412 16.304 20.6946 16.0739C20.8509 15.8409 20.9602 15.5739 21.0227 15.2727H22.0795C22 15.7187 21.8551 16.1179 21.6449 16.4702C21.4347 16.8224 21.1733 17.1222 20.8608 17.3693C20.5483 17.6136 20.1974 17.7997 19.8082 17.9276C19.4219 18.0554 19.0085 18.1193 18.5682 18.1193C17.8239 18.1193 17.1619 17.9375 16.5824 17.5739C16.0028 17.2102 15.5469 16.6932 15.2145 16.0227C14.8821 15.3523 14.7159 14.5568 14.7159 13.6364C14.7159 12.7159 14.8821 11.9205 15.2145 11.25C15.5469 10.5795 16.0028 10.0625 16.5824 9.69886C17.1619 9.33523 17.8239 9.15341 18.5682 9.15341C19.0085 9.15341 19.4219 9.21733 19.8082 9.34517C20.1974 9.47301 20.5483 9.66051 20.8608 9.90767C21.1733 10.152 21.4347 10.4503 21.6449 10.8026C21.8551 11.152 22 11.5511 22.0795 12Z" fill="black"/>
<defs>
<filter id="filter0_d_2026_3" x="0" y="0" width="38.6274" height="36.0521" filterUnits="userSpaceOnUse" color-interpolation-filters="sRGB">
<feFlood flood-opacity="0" result="BackgroundImageFix"/>
<feColorMatrix in="SourceAlpha" type="matrix" values="0 0 0 0 0 0 0 0 0 0 0 0 0 0 0 0 0 0 127 0" result="hardAlpha"/>
<feOffset dy="4"/>
<feGaussianBlur stdDeviation="2"/>
<feComposite in2="hardAlpha" operator="out"/>
<feColorMatrix type="matrix" values="0 0 0 0 0 0 0 0 0 0 0 0 0 0 0 0 0 0 0.25 0"/>
<feBlend mode="normal" in2="BackgroundImageFix" result="effect1_dropShadow_2026_3"/>
<feBlend mode="normal" in="SourceGraphic" in2="effect1_dropShadow_2026_3" result="shape"/>
</filter>
</defs>
</svg>
