<svg width="39" height="37" viewBox="0 0 39 37" fill="none" xmlns="http://www.w3.org/2000/svg">
<g filter="url(#filter0_d_2026_24)">
<ellipse cx="19.3137" cy="14.0261" rx="15.3137" ry="14.0261" fill="#FF8906"/>
<path d="M19.3135 0.5C27.5371 0.5 34.1279 6.59657 34.1279 14.0264C34.1277 21.456 27.537 27.5518 19.3135 27.5518C11.0901 27.5516 4.50019 21.456 4.5 14.0264C4.5 6.59664 11.09 0.500123 19.3135 0.5Z" stroke="black"/>
</g>
<path d="M22.4063 12.5H21.4375C21.3802 12.2214 21.2799 11.9766 21.1367 11.7656C20.9961 11.5547 20.8242 11.3776 20.6211 11.2344C20.4206 11.0885 20.1979 10.9792 19.9531 10.9062C19.7083 10.8333 19.4531 10.7969 19.1875 10.7969C18.7031 10.7969 18.2643 10.9193 17.8711 11.1641C17.4805 11.4089 17.1693 11.7695 16.9375 12.2461C16.7083 12.7227 16.5938 13.3073 16.5938 14C16.5938 14.6927 16.7083 15.2773 16.9375 15.7539C17.1693 16.2305 17.4805 16.5911 17.8711 16.8359C18.2643 17.0807 18.7031 17.2031 19.1875 17.2031C19.4531 17.2031 19.7083 17.1667 19.9531 17.0937C20.1979 17.0208 20.4206 16.9128 20.6211 16.7695C20.8242 16.6237 20.9961 16.4453 21.1367 16.2344C21.2799 16.0208 21.3802 15.776 21.4375 15.5H22.4063C22.3333 15.9089 22.2005 16.2747 22.0078 16.5977C21.8151 16.9206 21.5755 17.1953 21.2891 17.4219C21.0026 17.6458 20.681 17.8164 20.3242 17.9336C19.9701 18.0508 19.5911 18.1094 19.1875 18.1094C18.5052 18.1094 17.8984 17.9427 17.3672 17.6094C16.8359 17.276 16.418 16.8021 16.1133 16.1875C15.8086 15.5729 15.6563 14.8437 15.6563 14C15.6563 13.1562 15.8086 12.4271 16.1133 11.8125C16.418 11.1979 16.8359 10.724 17.3672 10.3906C17.8984 10.0573 18.5052 9.89062 19.1875 9.89062C19.5911 9.89062 19.9701 9.94922 20.3242 10.0664C20.681 10.1836 21.0026 10.3555 21.2891 10.582C21.5755 10.806 21.8151 11.0794 22.0078 11.4023C22.2005 11.7227 22.3333 12.0885 22.4063 12.5Z" fill="black"/>
<defs>
<filter id="filter0_d_2026_24" x="0" y="0" width="38.6274" height="36.0521" filterUnits="userSpaceOnUse" color-interpolation-filters="sRGB">
<feFlood flood-opacity="0" result="BackgroundImageFix"/>
<feColorMatrix in="SourceAlpha" type="matrix" values="0 0 0 0 0 0 0 0 0 0 0 0 0 0 0 0 0 0 127 0" result="hardAlpha"/>
<feOffset dy="4"/>
<feGaussianBlur stdDeviation="2"/>
<feComposite in2="hardAlpha" operator="out"/>
<feColorMatrix type="matrix" values="0 0 0 0 0 0 0 0 0 0 0 0 0 0 0 0 0 0 0.25 0"/>
<feBlend mode="normal" in2="BackgroundImageFix" result="effect1_dropShadow_2026_24"/>
<feBlend mode="normal" in="SourceGraphic" in2="effect1_dropShadow_2026_24" result="shape"/>
</filter>
</defs>
</svg>
