<svg width="39" height="37" viewBox="0 0 39 37" fill="none" xmlns="http://www.w3.org/2000/svg">
<g filter="url(#filter0_d_2026_97)">
<ellipse cx="19.3137" cy="14.0261" rx="15.3137" ry="14.0261" fill="#FF8906"/>
<path d="M19.3135 0.5C27.5371 0.5 34.1279 6.59657 34.1279 14.0264C34.1277 21.456 27.537 27.5518 19.3135 27.5518C11.0901 27.5516 4.50019 21.456 4.5 14.0264C4.5 6.59664 11.09 0.500123 19.3135 0.5Z" stroke="black"/>
</g>
<path d="M22.0227 13C21.929 12.7131 21.8054 12.456 21.652 12.2287C21.5014 11.9986 21.321 11.8026 21.1108 11.6406C20.9034 11.4787 20.6676 11.3551 20.4034 11.2699C20.1392 11.1847 19.8494 11.142 19.5341 11.142C19.017 11.142 18.5469 11.2756 18.1236 11.5426C17.7003 11.8097 17.3636 12.2031 17.1136 12.723C16.8636 13.2429 16.7386 13.8807 16.7386 14.6364C16.7386 15.392 16.8651 16.0298 17.1179 16.5497C17.3707 17.0696 17.7131 17.4631 18.1449 17.7301C18.5767 17.9972 19.0625 18.1307 19.6023 18.1307C20.1023 18.1307 20.5426 18.0241 20.9233 17.8111C21.3068 17.5952 21.6051 17.2912 21.8182 16.8991C22.0341 16.5043 22.142 16.0398 22.142 15.5057L22.4659 15.5739H19.8409V14.6364H23.1648V15.5739C23.1648 16.2926 23.0114 16.9176 22.7045 17.4489C22.4006 17.9801 21.9801 18.392 21.4432 18.6847C20.9091 18.9744 20.2955 19.1193 19.6023 19.1193C18.8295 19.1193 18.1506 18.9375 17.5653 18.5739C16.983 18.2102 16.5284 17.6932 16.2017 17.0227C15.8778 16.3523 15.7159 15.5568 15.7159 14.6364C15.7159 13.946 15.8082 13.3253 15.9929 12.7741C16.1804 12.2202 16.4446 11.7486 16.7855 11.3594C17.1264 10.9702 17.5298 10.6719 17.9957 10.4645C18.4616 10.2571 18.9744 10.1534 19.5341 10.1534C19.9943 10.1534 20.4233 10.223 20.821 10.3622C21.2216 10.4986 21.5781 10.6932 21.8906 10.946C22.206 11.196 22.4688 11.4957 22.679 11.8452C22.8892 12.1918 23.0341 12.5767 23.1136 13H22.0227Z" fill="black"/>
<defs>
<filter id="filter0_d_2026_97" x="0" y="0" width="38.6274" height="36.0521" filterUnits="userSpaceOnUse" color-interpolation-filters="sRGB">
<feFlood flood-opacity="0" result="BackgroundImageFix"/>
<feColorMatrix in="SourceAlpha" type="matrix" values="0 0 0 0 0 0 0 0 0 0 0 0 0 0 0 0 0 0 127 0" result="hardAlpha"/>
<feOffset dy="4"/>
<feGaussianBlur stdDeviation="2"/>
<feComposite in2="hardAlpha" operator="out"/>
<feColorMatrix type="matrix" values="0 0 0 0 0 0 0 0 0 0 0 0 0 0 0 0 0 0 0.25 0"/>
<feBlend mode="normal" in2="BackgroundImageFix" result="effect1_dropShadow_2026_97"/>
<feBlend mode="normal" in="SourceGraphic" in2="effect1_dropShadow_2026_97" result="shape"/>
</filter>
</defs>
</svg>
