<svg width="39" height="37" viewBox="0 0 39 37" fill="none" xmlns="http://www.w3.org/2000/svg">
<g filter="url(#filter0_d_2026_29)">
<ellipse cx="19.3137" cy="14.0261" rx="15.3137" ry="14.0261" fill="#FF8906"/>
<path d="M19.3135 0.5C27.5371 0.5 34.1279 6.59657 34.1279 14.0264C34.1277 21.456 27.537 27.5518 19.3135 27.5518C11.0901 27.5516 4.50019 21.456 4.5 14.0264C4.5 6.59664 11.09 0.500123 19.3135 0.5Z" stroke="black"/>
</g>
<path d="M15.9688 18V10H18.7656C19.3229 10 19.7826 10.0964 20.1445 10.2891C20.5065 10.4792 20.776 10.7357 20.9531 11.0586C21.1302 11.3789 21.2188 11.7344 21.2188 12.125C21.2188 12.4687 21.1576 12.7526 21.0352 12.9766C20.9154 13.2005 20.7565 13.3776 20.5586 13.5078C20.3633 13.638 20.151 13.7344 19.9219 13.7969V13.875C20.1667 13.8906 20.4128 13.9766 20.6602 14.1328C20.9076 14.2891 21.1146 14.513 21.2813 14.8047C21.4479 15.0964 21.5312 15.4531 21.5312 15.875C21.5312 16.276 21.4401 16.6367 21.2578 16.957C21.0755 17.2773 20.7878 17.5312 20.3945 17.7187C20.0013 17.9062 19.4896 18 18.8594 18H15.9688ZM16.9375 17.1406H18.8594C19.4922 17.1406 19.9414 17.0182 20.207 16.7734C20.4753 16.526 20.6094 16.2266 20.6094 15.875C20.6094 15.6042 20.5404 15.3542 20.4023 15.125C20.2643 14.8932 20.0677 14.7083 19.8125 14.5703C19.5573 14.4297 19.2552 14.3594 18.9063 14.3594H16.9375V17.1406ZM16.9375 13.5156H18.7344C19.026 13.5156 19.2891 13.4583 19.5234 13.3437C19.7604 13.2292 19.9479 13.0677 20.0859 12.8594C20.2266 12.651 20.2969 12.4062 20.2969 12.125C20.2969 11.7734 20.1745 11.4753 19.9297 11.2305C19.6849 10.9831 19.2969 10.8594 18.7656 10.8594H16.9375V13.5156Z" fill="black"/>
<defs>
<filter id="filter0_d_2026_29" x="0" y="0" width="38.6274" height="36.0521" filterUnits="userSpaceOnUse" color-interpolation-filters="sRGB">
<feFlood flood-opacity="0" result="BackgroundImageFix"/>
<feColorMatrix in="SourceAlpha" type="matrix" values="0 0 0 0 0 0 0 0 0 0 0 0 0 0 0 0 0 0 127 0" result="hardAlpha"/>
<feOffset dy="4"/>
<feGaussianBlur stdDeviation="2"/>
<feComposite in2="hardAlpha" operator="out"/>
<feColorMatrix type="matrix" values="0 0 0 0 0 0 0 0 0 0 0 0 0 0 0 0 0 0 0.25 0"/>
<feBlend mode="normal" in2="BackgroundImageFix" result="effect1_dropShadow_2026_29"/>
<feBlend mode="normal" in="SourceGraphic" in2="effect1_dropShadow_2026_29" result="shape"/>
</filter>
</defs>
</svg>
