<svg width="39" height="37" viewBox="0 0 39 37" fill="none" xmlns="http://www.w3.org/2000/svg">
<g filter="url(#filter0_d_2026_72)">
<ellipse cx="19.3137" cy="14.0261" rx="15.3137" ry="14.0261" fill="#FF8906"/>
<path d="M19.3135 0.5C27.5371 0.5 34.1279 6.59657 34.1279 14.0264C34.1277 21.456 27.537 27.5518 19.3135 27.5518C11.0901 27.5516 4.50019 21.456 4.5 14.0264C4.5 6.59664 11.09 0.500123 19.3135 0.5Z" stroke="black"/>
</g>
<path d="M19.4375 12.5C19.3516 12.237 19.2383 12.0013 19.0977 11.793C18.9596 11.582 18.7943 11.4023 18.6016 11.2539C18.4115 11.1055 18.1953 10.9922 17.9531 10.9141C17.7109 10.8359 17.4453 10.7969 17.1562 10.7969C16.6823 10.7969 16.2513 10.9193 15.8633 11.1641C15.4753 11.4089 15.1667 11.7695 14.9375 12.2461C14.7083 12.7227 14.5938 13.3073 14.5938 14C14.5938 14.6927 14.7096 15.2773 14.9414 15.7539C15.1732 16.2305 15.487 16.5911 15.8828 16.8359C16.2786 17.0807 16.724 17.2031 17.2188 17.2031C17.6771 17.2031 18.0807 17.1055 18.4297 16.9102C18.7813 16.7122 19.0547 16.4336 19.25 16.0742C19.4479 15.7122 19.5469 15.2865 19.5469 14.7969L19.8438 14.8594H17.4375V14H20.4844V14.8594C20.4844 15.5182 20.3438 16.0911 20.0625 16.5781C19.7839 17.0651 19.3984 17.4427 18.9062 17.7109C18.4167 17.9766 17.8542 18.1094 17.2188 18.1094C16.5104 18.1094 15.888 17.9427 15.3516 17.6094C14.8177 17.276 14.401 16.8021 14.1016 16.1875C13.8047 15.5729 13.6563 14.8437 13.6563 14C13.6563 13.3672 13.7409 12.7982 13.9102 12.293C14.082 11.7852 14.3242 11.3529 14.6367 10.9961C14.9492 10.6393 15.319 10.3659 15.7461 10.1758C16.1732 9.98568 16.6432 9.89062 17.1562 9.89062C17.5781 9.89062 17.9714 9.95443 18.3359 10.082C18.7031 10.207 19.0299 10.3854 19.3164 10.6172C19.6055 10.8464 19.8464 11.1211 20.0391 11.4414C20.2318 11.7591 20.3646 12.112 20.4375 12.5H19.4375ZM25.0029 18L26.3154 10H27.0967L25.7842 18H25.0029ZM21.3623 15.7812L21.4873 15H27.4561L27.3311 15.7812H21.3623ZM22.1904 18L23.5029 10H24.2842L22.9717 18H22.1904ZM21.8311 13L21.9561 12.2187H27.9248L27.7998 13H21.8311Z" fill="black"/>
<defs>
<filter id="filter0_d_2026_72" x="0" y="0" width="38.6274" height="36.0521" filterUnits="userSpaceOnUse" color-interpolation-filters="sRGB">
<feFlood flood-opacity="0" result="BackgroundImageFix"/>
<feColorMatrix in="SourceAlpha" type="matrix" values="0 0 0 0 0 0 0 0 0 0 0 0 0 0 0 0 0 0 127 0" result="hardAlpha"/>
<feOffset dy="4"/>
<feGaussianBlur stdDeviation="2"/>
<feComposite in2="hardAlpha" operator="out"/>
<feColorMatrix type="matrix" values="0 0 0 0 0 0 0 0 0 0 0 0 0 0 0 0 0 0 0.25 0"/>
<feBlend mode="normal" in2="BackgroundImageFix" result="effect1_dropShadow_2026_72"/>
<feBlend mode="normal" in="SourceGraphic" in2="effect1_dropShadow_2026_72" result="shape"/>
</filter>
</defs>
</svg>
