<svg width="39" height="37" viewBox="0 0 39 37" fill="none" xmlns="http://www.w3.org/2000/svg">
<g filter="url(#filter0_d_2026_44)">
<ellipse cx="19.3137" cy="14.0261" rx="15.3137" ry="14.0261" fill="#FF8906"/>
<path d="M19.3135 0.5C27.5371 0.5 34.1279 6.59657 34.1279 14.0264C34.1277 21.456 27.537 27.5518 19.3135 27.5518C11.0901 27.5516 4.50019 21.456 4.5 14.0264C4.5 6.59664 11.09 0.500123 19.3135 0.5Z" stroke="black"/>
</g>
<path d="M16.0568 19V10.2727H19.108C19.7159 10.2727 20.2173 10.3778 20.6122 10.5881C21.0071 10.7955 21.3011 11.0753 21.4943 11.4276C21.6875 11.777 21.7841 12.1648 21.7841 12.5909C21.7841 12.9659 21.7173 13.2756 21.5838 13.5199C21.4531 13.7642 21.2798 13.9574 21.0639 14.0994C20.8509 14.2415 20.6193 14.3466 20.3693 14.4148V14.5C20.6364 14.517 20.9048 14.6108 21.1747 14.7812C21.4446 14.9517 21.6705 15.196 21.8523 15.5142C22.0341 15.8324 22.125 16.2216 22.125 16.6818C22.125 17.1193 22.0256 17.5128 21.8267 17.8622C21.6278 18.2116 21.3139 18.4886 20.8849 18.6932C20.456 18.8977 19.8977 19 19.2102 19H16.0568ZM17.1136 18.0625H19.2102C19.9006 18.0625 20.3906 17.929 20.6804 17.6619C20.973 17.392 21.1193 17.0653 21.1193 16.6818C21.1193 16.3864 21.044 16.1136 20.8935 15.8636C20.7429 15.6108 20.5284 15.4091 20.25 15.2585C19.9716 15.1051 19.642 15.0284 19.2614 15.0284H17.1136V18.0625ZM17.1136 14.108H19.0739C19.392 14.108 19.679 14.0455 19.9347 13.9205C20.1932 13.7955 20.3977 13.6193 20.5483 13.392C20.7017 13.1648 20.7784 12.8977 20.7784 12.5909C20.7784 12.2074 20.6449 11.8821 20.3778 11.6151C20.1108 11.3452 19.6875 11.2102 19.108 11.2102H17.1136V14.108Z" fill="black"/>
<defs>
<filter id="filter0_d_2026_44" x="0" y="0" width="38.6274" height="36.0521" filterUnits="userSpaceOnUse" color-interpolation-filters="sRGB">
<feFlood flood-opacity="0" result="BackgroundImageFix"/>
<feColorMatrix in="SourceAlpha" type="matrix" values="0 0 0 0 0 0 0 0 0 0 0 0 0 0 0 0 0 0 127 0" result="hardAlpha"/>
<feOffset dy="4"/>
<feGaussianBlur stdDeviation="2"/>
<feComposite in2="hardAlpha" operator="out"/>
<feColorMatrix type="matrix" values="0 0 0 0 0 0 0 0 0 0 0 0 0 0 0 0 0 0 0.25 0"/>
<feBlend mode="normal" in2="BackgroundImageFix" result="effect1_dropShadow_2026_44"/>
<feBlend mode="normal" in="SourceGraphic" in2="effect1_dropShadow_2026_44" result="shape"/>
</filter>
</defs>
</svg>
