<svg width="39" height="37" viewBox="0 0 39 37" fill="none" xmlns="http://www.w3.org/2000/svg">
<g filter="url(#filter0_d_2026_92)">
<ellipse cx="19.3137" cy="14.0261" rx="15.3137" ry="14.0261" fill="#FF8906"/>
<path d="M19.3135 0.5C27.5371 0.5 34.1279 6.59657 34.1279 14.0264C34.1277 21.456 27.537 27.5518 19.3135 27.5518C11.0901 27.5516 4.50019 21.456 4.5 14.0264C4.5 6.59664 11.09 0.500123 19.3135 0.5Z" stroke="black"/>
</g>
<path d="M22.4375 12.5C22.3516 12.237 22.2383 12.0013 22.0977 11.793C21.9596 11.582 21.7943 11.4023 21.6016 11.2539C21.4115 11.1055 21.1953 10.9922 20.9531 10.9141C20.7109 10.8359 20.4453 10.7969 20.1562 10.7969C19.6823 10.7969 19.2513 10.9193 18.8633 11.1641C18.4753 11.4089 18.1667 11.7695 17.9375 12.2461C17.7083 12.7227 17.5938 13.3073 17.5938 14C17.5938 14.6927 17.7096 15.2773 17.9414 15.7539C18.1732 16.2305 18.487 16.5911 18.8828 16.8359C19.2786 17.0807 19.724 17.2031 20.2188 17.2031C20.6771 17.2031 21.0807 17.1055 21.4297 16.9102C21.7813 16.7122 22.0547 16.4336 22.25 16.0742C22.4479 15.7122 22.5469 15.2865 22.5469 14.7969L22.8438 14.8594H20.4375V14H23.4844V14.8594C23.4844 15.5182 23.3438 16.0911 23.0625 16.5781C22.7839 17.0651 22.3984 17.4427 21.9062 17.7109C21.4167 17.9766 20.8542 18.1094 20.2188 18.1094C19.5104 18.1094 18.888 17.9427 18.3516 17.6094C17.8177 17.276 17.401 16.8021 17.1016 16.1875C16.8047 15.5729 16.6563 14.8437 16.6563 14C16.6563 13.3672 16.7409 12.7982 16.9102 12.293C17.082 11.7852 17.3242 11.3529 17.6367 10.9961C17.9492 10.6393 18.319 10.3659 18.7461 10.1758C19.1732 9.98568 19.6432 9.89062 20.1562 9.89062C20.5781 9.89062 20.9714 9.95443 21.3359 10.082C21.7031 10.207 22.0299 10.3854 22.3164 10.6172C22.6055 10.8464 22.8464 11.1211 23.0391 11.4414C23.2318 11.7591 23.3646 12.112 23.4375 12.5H22.4375Z" fill="black"/>
<defs>
<filter id="filter0_d_2026_92" x="0" y="0" width="38.6274" height="36.0521" filterUnits="userSpaceOnUse" color-interpolation-filters="sRGB">
<feFlood flood-opacity="0" result="BackgroundImageFix"/>
<feColorMatrix in="SourceAlpha" type="matrix" values="0 0 0 0 0 0 0 0 0 0 0 0 0 0 0 0 0 0 127 0" result="hardAlpha"/>
<feOffset dy="4"/>
<feGaussianBlur stdDeviation="2"/>
<feComposite in2="hardAlpha" operator="out"/>
<feColorMatrix type="matrix" values="0 0 0 0 0 0 0 0 0 0 0 0 0 0 0 0 0 0 0.25 0"/>
<feBlend mode="normal" in2="BackgroundImageFix" result="effect1_dropShadow_2026_92"/>
<feBlend mode="normal" in="SourceGraphic" in2="effect1_dropShadow_2026_92" result="shape"/>
</filter>
</defs>
</svg>
