<svg width="39" height="37" viewBox="0 0 39 37" fill="none" xmlns="http://www.w3.org/2000/svg">
<g filter="url(#filter0_d_2026_103)">
<ellipse cx="19.3137" cy="14.0261" rx="15.3137" ry="14.0261" fill="#FF8906"/>
<path d="M19.3135 0.5C27.5371 0.5 34.1279 6.59657 34.1279 14.0264C34.1277 21.456 27.537 27.5518 19.3135 27.5518C11.0901 27.5516 4.50019 21.456 4.5 14.0264C4.5 6.59664 11.09 0.500123 19.3135 0.5Z" stroke="black"/>
</g>
<path d="M18.4375 12.5C18.3516 12.237 18.2383 12.0013 18.0977 11.793C17.9596 11.582 17.7943 11.4023 17.6016 11.2539C17.4115 11.1055 17.1953 10.9922 16.9531 10.9141C16.7109 10.8359 16.4453 10.7969 16.1562 10.7969C15.6823 10.7969 15.2513 10.9193 14.8633 11.1641C14.4753 11.4089 14.1667 11.7695 13.9375 12.2461C13.7083 12.7227 13.5938 13.3073 13.5938 14C13.5938 14.6927 13.7096 15.2773 13.9414 15.7539C14.1732 16.2305 14.487 16.5911 14.8828 16.8359C15.2786 17.0807 15.724 17.2031 16.2188 17.2031C16.6771 17.2031 17.0807 17.1055 17.4297 16.9102C17.7813 16.7122 18.0547 16.4336 18.25 16.0742C18.4479 15.7122 18.5469 15.2865 18.5469 14.7969L18.8438 14.8594H16.4375V14H19.4844V14.8594C19.4844 15.5182 19.3438 16.0911 19.0625 16.5781C18.7839 17.0651 18.3984 17.4427 17.9062 17.7109C17.4167 17.9766 16.8542 18.1094 16.2188 18.1094C15.5104 18.1094 14.888 17.9427 14.3516 17.6094C13.8177 17.276 13.401 16.8021 13.1016 16.1875C12.8047 15.5729 12.6563 14.8437 12.6563 14C12.6563 13.3672 12.7409 12.7982 12.9102 12.293C13.082 11.7852 13.3242 11.3529 13.6367 10.9961C13.9492 10.6393 14.319 10.3659 14.7461 10.1758C15.1732 9.98568 15.6432 9.89062 16.1562 9.89062C16.5781 9.89062 16.9714 9.95443 17.3359 10.082C17.7031 10.207 18.0299 10.3854 18.3164 10.6172C18.6055 10.8464 18.8464 11.1211 19.0391 11.4414C19.2318 11.7591 19.3646 12.112 19.4375 12.5H18.4375ZM24.0029 18L25.3154 10H26.0967L24.7842 18H24.0029ZM20.3623 15.7812L20.4873 15H26.4561L26.3311 15.7812H20.3623ZM21.1904 18L22.5029 10H23.2842L21.9717 18H21.1904ZM20.8311 13L20.9561 12.2187H26.9248L26.7998 13H20.8311Z" fill="black"/>
<defs>
<filter id="filter0_d_2026_103" x="0" y="0" width="38.6274" height="36.0521" filterUnits="userSpaceOnUse" color-interpolation-filters="sRGB">
<feFlood flood-opacity="0" result="BackgroundImageFix"/>
<feColorMatrix in="SourceAlpha" type="matrix" values="0 0 0 0 0 0 0 0 0 0 0 0 0 0 0 0 0 0 127 0" result="hardAlpha"/>
<feOffset dy="4"/>
<feGaussianBlur stdDeviation="2"/>
<feComposite in2="hardAlpha" operator="out"/>
<feColorMatrix type="matrix" values="0 0 0 0 0 0 0 0 0 0 0 0 0 0 0 0 0 0 0.25 0"/>
<feBlend mode="normal" in2="BackgroundImageFix" result="effect1_dropShadow_2026_103"/>
<feBlend mode="normal" in="SourceGraphic" in2="effect1_dropShadow_2026_103" result="shape"/>
</filter>
</defs>
</svg>
