<svg width="1223" height="272" viewBox="0 0 1223 272" fill="none" xmlns="http://www.w3.org/2000/svg">
<line x1="23.9958" y1="34.2449" x2="1209" y2="34.2449" stroke="black" stroke-width="1.5"/>
<line x1="24" y1="78" x2="1209" y2="78" stroke="black" stroke-width="2"/>
<line x1="23.9997" y1="119.002" x2="1209" y2="119.002" stroke="black" stroke-width="2.5"/>
<line x1="23.9997" y1="151.75" x2="1209" y2="151.75" stroke="black" stroke-width="3"/>
<line x1="23.9997" y1="192.499" x2="1209" y2="192.499" stroke="black" stroke-width="3.5"/>
<line x1="24" y1="234" x2="1209" y2="234" stroke="black" stroke-width="4"/>
<line opacity="0.85" x1="43.25" y1="20" x2="43.25" y2="253" stroke="black" stroke-width="4.5"/>
<line x1="1151" y1="20" x2="1151" y2="253" stroke="black" stroke-width="2"/>
<line x1="1106" y1="20" x2="1106" y2="253" stroke="black" stroke-width="2"/>
<line x1="1058" y1="20" x2="1058" y2="253" stroke="black" stroke-width="2"/>
<line x1="1008" y1="20" x2="1008" y2="253" stroke="black" stroke-width="2"/>
<line x1="1194" y1="20" x2="1194" y2="253" stroke="black" stroke-width="2"/>
<line x1="899" y1="20" x2="899" y2="253" stroke="black" stroke-width="2"/>
<line x1="838" y1="20" x2="838" y2="253" stroke="black" stroke-width="2"/>
<line x1="775" y1="20" x2="775" y2="253" stroke="black" stroke-width="2"/>
<g filter="url(#filter0_d_2026_110)">
<line x1="138" y1="20" x2="138" y2="253" stroke="black" stroke-width="2"/>
</g>
<line x1="708" y1="20" x2="708" y2="253" stroke="black" stroke-width="2"/>
<line x1="320" y1="20" x2="320" y2="253" stroke="black" stroke-width="2"/>
<line x1="954" y1="20" x2="954" y2="253" stroke="black" stroke-width="2"/>
<line x1="638" y1="20" x2="638" y2="253" stroke="black" stroke-width="2"/>
<line x1="231" y1="20" x2="231" y2="253" stroke="black" stroke-width="2"/>
<line x1="407" y1="20" x2="407" y2="253" stroke="black" stroke-width="2"/>
<line x1="320" y1="20" x2="320" y2="253" stroke="black" stroke-width="2"/>
<line x1="565" y1="20" x2="565" y2="253" stroke="black" stroke-width="2"/>
<line x1="486" y1="20" x2="486" y2="253" stroke="black" stroke-width="2"/>
<ellipse cx="447" cy="136.5" rx="9" ry="8.5" fill="#6A6868"/>
<ellipse cx="926" cy="99.5" rx="9" ry="8.5" fill="#6A6868"/>
<ellipse cx="1174" cy="134.5" rx="9" ry="8.5" fill="#6A6868"/>
<ellipse cx="926" cy="171.5" rx="9" ry="8.5" fill="#6A6868"/>
<ellipse cx="277" cy="136.5" rx="9" ry="8.5" fill="#6A6868"/>
<ellipse cx="602" cy="136.5" rx="9" ry="8.5" fill="#6A6868"/>
<ellipse cx="741" cy="136.5" rx="9" ry="8.5" fill="#6A6868"/>
<ellipse cx="1081" cy="134.5" rx="9" ry="8.5" fill="#6A6868"/>
<defs>
<filter id="filter0_d_2026_110" x="133" y="20" width="10" height="241" filterUnits="userSpaceOnUse" color-interpolation-filters="sRGB">
<feFlood flood-opacity="0" result="BackgroundImageFix"/>
<feColorMatrix in="SourceAlpha" type="matrix" values="0 0 0 0 0 0 0 0 0 0 0 0 0 0 0 0 0 0 127 0" result="hardAlpha"/>
<feOffset dy="4"/>
<feGaussianBlur stdDeviation="2"/>
<feComposite in2="hardAlpha" operator="out"/>
<feColorMatrix type="matrix" values="0 0 0 0 0 0 0 0 0 0 0 0 0 0 0 0 0 0 0.25 0"/>
<feBlend mode="normal" in2="BackgroundImageFix" result="effect1_dropShadow_2026_110"/>
<feBlend mode="normal" in="SourceGraphic" in2="effect1_dropShadow_2026_110" result="shape"/>
</filter>
</defs>
</svg>
