<svg width="39" height="37" viewBox="0 0 39 37" fill="none" xmlns="http://www.w3.org/2000/svg">
<g filter="url(#filter0_d_2026_7)">
<ellipse cx="19.3137" cy="14.0261" rx="15.3137" ry="14.0261" fill="#FF8906"/>
<path d="M19.3135 0.5C27.5371 0.5 34.1279 6.59657 34.1279 14.0264C34.1277 21.456 27.537 27.5518 19.3135 27.5518C11.0901 27.5516 4.50019 21.456 4.5 14.0264C4.5 6.59664 11.09 0.500123 19.3135 0.5Z" stroke="black"/>
</g>
<path d="M21.4375 12.5C21.3516 12.237 21.2383 12.0013 21.0977 11.793C20.9596 11.582 20.7943 11.4023 20.6016 11.2539C20.4115 11.1055 20.1953 10.9922 19.9531 10.9141C19.7109 10.8359 19.4453 10.7969 19.1562 10.7969C18.6823 10.7969 18.2513 10.9193 17.8633 11.1641C17.4753 11.4089 17.1667 11.7695 16.9375 12.2461C16.7083 12.7227 16.5938 13.3073 16.5938 14C16.5938 14.6927 16.7096 15.2773 16.9414 15.7539C17.1732 16.2305 17.487 16.5911 17.8828 16.8359C18.2786 17.0807 18.724 17.2031 19.2188 17.2031C19.6771 17.2031 20.0807 17.1055 20.4297 16.9102C20.7813 16.7122 21.0547 16.4336 21.25 16.0742C21.4479 15.7122 21.5469 15.2865 21.5469 14.7969L21.8438 14.8594H19.4375V14H22.4844V14.8594C22.4844 15.5182 22.3438 16.0911 22.0625 16.5781C21.7839 17.0651 21.3984 17.4427 20.9062 17.7109C20.4167 17.9766 19.8542 18.1094 19.2188 18.1094C18.5104 18.1094 17.888 17.9427 17.3516 17.6094C16.8177 17.276 16.401 16.8021 16.1016 16.1875C15.8047 15.5729 15.6563 14.8437 15.6563 14C15.6563 13.3672 15.7409 12.7982 15.9102 12.293C16.082 11.7852 16.3242 11.3529 16.6367 10.9961C16.9492 10.6393 17.319 10.3659 17.7461 10.1758C18.1732 9.98568 18.6432 9.89062 19.1562 9.89062C19.5781 9.89062 19.9714 9.95443 20.3359 10.082C20.7031 10.207 21.0299 10.3854 21.3164 10.6172C21.6055 10.8464 21.8464 11.1211 22.0391 11.4414C22.2318 11.7591 22.3646 12.112 22.4375 12.5H21.4375Z" fill="black"/>
<defs>
<filter id="filter0_d_2026_7" x="0" y="0" width="38.6274" height="36.0521" filterUnits="userSpaceOnUse" color-interpolation-filters="sRGB">
<feFlood flood-opacity="0" result="BackgroundImageFix"/>
<feColorMatrix in="SourceAlpha" type="matrix" values="0 0 0 0 0 0 0 0 0 0 0 0 0 0 0 0 0 0 127 0" result="hardAlpha"/>
<feOffset dy="4"/>
<feGaussianBlur stdDeviation="2"/>
<feComposite in2="hardAlpha" operator="out"/>
<feColorMatrix type="matrix" values="0 0 0 0 0 0 0 0 0 0 0 0 0 0 0 0 0 0 0.25 0"/>
<feBlend mode="normal" in2="BackgroundImageFix" result="effect1_dropShadow_2026_7"/>
<feBlend mode="normal" in="SourceGraphic" in2="effect1_dropShadow_2026_7" result="shape"/>
</filter>
</defs>
</svg>
