<svg width="39" height="37" viewBox="0 0 39 37" fill="none" xmlns="http://www.w3.org/2000/svg">
<g filter="url(#filter0_d_2026_31)">
<ellipse cx="19.3137" cy="14.0261" rx="15.3137" ry="14.0261" fill="#FF8906"/>
<path d="M19.3135 0.5C27.5371 0.5 34.1279 6.59657 34.1279 14.0264C34.1277 21.456 27.537 27.5518 19.3135 27.5518C11.0901 27.5516 4.50019 21.456 4.5 14.0264C4.5 6.59664 11.09 0.500123 19.3135 0.5Z" stroke="black"/>
</g>
<path d="M20.0227 13C19.929 12.7131 19.8054 12.456 19.652 12.2287C19.5014 11.9986 19.321 11.8026 19.1108 11.6406C18.9034 11.4787 18.6676 11.3551 18.4034 11.2699C18.1392 11.1847 17.8494 11.142 17.5341 11.142C17.017 11.142 16.5469 11.2756 16.1236 11.5426C15.7003 11.8097 15.3636 12.2031 15.1136 12.723C14.8636 13.2429 14.7386 13.8807 14.7386 14.6364C14.7386 15.392 14.8651 16.0298 15.1179 16.5497C15.3707 17.0696 15.7131 17.4631 16.1449 17.7301C16.5767 17.9972 17.0625 18.1307 17.6023 18.1307C18.1023 18.1307 18.5426 18.0241 18.9233 17.8111C19.3068 17.5952 19.6051 17.2912 19.8182 16.8991C20.0341 16.5043 20.142 16.0398 20.142 15.5057L20.4659 15.5739H17.8409V14.6364H21.1648V15.5739C21.1648 16.2926 21.0114 16.9176 20.7045 17.4489C20.4006 17.9801 19.9801 18.392 19.4432 18.6847C18.9091 18.9744 18.2955 19.1193 17.6023 19.1193C16.8295 19.1193 16.1506 18.9375 15.5653 18.5739C14.983 18.2102 14.5284 17.6932 14.2017 17.0227C13.8778 16.3523 13.7159 15.5568 13.7159 14.6364C13.7159 13.946 13.8082 13.3253 13.9929 12.7741C14.1804 12.2202 14.4446 11.7486 14.7855 11.3594C15.1264 10.9702 15.5298 10.6719 15.9957 10.4645C16.4616 10.2571 16.9744 10.1534 17.5341 10.1534C17.9943 10.1534 18.4233 10.223 18.821 10.3622C19.2216 10.4986 19.5781 10.6932 19.8906 10.946C20.206 11.196 20.4688 11.4957 20.679 11.8452C20.8892 12.1918 21.0341 12.5767 21.1136 13H20.0227ZM26.0941 19L27.5259 10.2727H28.3782L26.9464 19H26.0941ZM22.1225 16.5795L22.2589 15.7273H28.7702L28.6339 16.5795H22.1225ZM23.0259 19L24.4577 10.2727H25.31L23.8782 19H23.0259ZM22.6339 13.5455L22.7702 12.6932H29.2816L29.1452 13.5455H22.6339Z" fill="black"/>
<defs>
<filter id="filter0_d_2026_31" x="0" y="0" width="38.6274" height="36.0521" filterUnits="userSpaceOnUse" color-interpolation-filters="sRGB">
<feFlood flood-opacity="0" result="BackgroundImageFix"/>
<feColorMatrix in="SourceAlpha" type="matrix" values="0 0 0 0 0 0 0 0 0 0 0 0 0 0 0 0 0 0 127 0" result="hardAlpha"/>
<feOffset dy="4"/>
<feGaussianBlur stdDeviation="2"/>
<feComposite in2="hardAlpha" operator="out"/>
<feColorMatrix type="matrix" values="0 0 0 0 0 0 0 0 0 0 0 0 0 0 0 0 0 0 0.25 0"/>
<feBlend mode="normal" in2="BackgroundImageFix" result="effect1_dropShadow_2026_31"/>
<feBlend mode="normal" in="SourceGraphic" in2="effect1_dropShadow_2026_31" result="shape"/>
</filter>
</defs>
</svg>
