<svg width="39" height="37" viewBox="0 0 39 37" fill="none" xmlns="http://www.w3.org/2000/svg">
<g filter="url(#filter0_d_2026_61)">
<ellipse cx="19.3137" cy="14.0261" rx="15.3137" ry="14.0261" fill="#FF8906"/>
<path d="M19.3135 0.5C27.5371 0.5 34.1279 6.59657 34.1279 14.0264C34.1277 21.456 27.537 27.5518 19.3135 27.5518C11.0901 27.5516 4.50019 21.456 4.5 14.0264C4.5 6.59664 11.09 0.500123 19.3135 0.5Z" stroke="black"/>
</g>
<path d="M18.4063 12.5H17.4375C17.3802 12.2214 17.2799 11.9766 17.1367 11.7656C16.9961 11.5547 16.8242 11.3776 16.6211 11.2344C16.4206 11.0885 16.1979 10.9792 15.9531 10.9062C15.7083 10.8333 15.4531 10.7969 15.1875 10.7969C14.7031 10.7969 14.2643 10.9193 13.8711 11.1641C13.4805 11.4089 13.1693 11.7695 12.9375 12.2461C12.7083 12.7227 12.5938 13.3073 12.5938 14C12.5938 14.6927 12.7083 15.2773 12.9375 15.7539C13.1693 16.2305 13.4805 16.5911 13.8711 16.8359C14.2643 17.0807 14.7031 17.2031 15.1875 17.2031C15.4531 17.2031 15.7083 17.1667 15.9531 17.0937C16.1979 17.0208 16.4206 16.9128 16.6211 16.7695C16.8242 16.6237 16.9961 16.4453 17.1367 16.2344C17.2799 16.0208 17.3802 15.776 17.4375 15.5H18.4063C18.3333 15.9089 18.2005 16.2747 18.0078 16.5977C17.8151 16.9206 17.5755 17.1953 17.2891 17.4219C17.0026 17.6458 16.681 17.8164 16.3242 17.9336C15.9701 18.0508 15.5911 18.1094 15.1875 18.1094C14.5052 18.1094 13.8984 17.9427 13.3672 17.6094C12.8359 17.276 12.418 16.8021 12.1133 16.1875C11.8086 15.5729 11.6563 14.8437 11.6563 14C11.6563 13.1562 11.8086 12.4271 12.1133 11.8125C12.418 11.1979 12.8359 10.724 13.3672 10.3906C13.8984 10.0573 14.5052 9.89062 15.1875 9.89062C15.5911 9.89062 15.9701 9.94922 16.3242 10.0664C16.681 10.1836 17.0026 10.3555 17.2891 10.582C17.5755 10.806 17.8151 11.0794 18.0078 11.4023C18.2005 11.7227 18.3333 12.0885 18.4063 12.5ZM22.8311 18L24.1436 10H24.9248L23.6123 18H22.8311ZM19.1904 15.7812L19.3154 15H25.2842L25.1592 15.7812H19.1904ZM20.0186 18L21.3311 10H22.1123L20.7998 18H20.0186ZM19.6592 13L19.7842 12.2187H25.7529L25.6279 13H19.6592Z" fill="black"/>
<defs>
<filter id="filter0_d_2026_61" x="0" y="0" width="38.6274" height="36.0521" filterUnits="userSpaceOnUse" color-interpolation-filters="sRGB">
<feFlood flood-opacity="0" result="BackgroundImageFix"/>
<feColorMatrix in="SourceAlpha" type="matrix" values="0 0 0 0 0 0 0 0 0 0 0 0 0 0 0 0 0 0 127 0" result="hardAlpha"/>
<feOffset dy="4"/>
<feGaussianBlur stdDeviation="2"/>
<feComposite in2="hardAlpha" operator="out"/>
<feColorMatrix type="matrix" values="0 0 0 0 0 0 0 0 0 0 0 0 0 0 0 0 0 0 0.25 0"/>
<feBlend mode="normal" in2="BackgroundImageFix" result="effect1_dropShadow_2026_61"/>
<feBlend mode="normal" in="SourceGraphic" in2="effect1_dropShadow_2026_61" result="shape"/>
</filter>
</defs>
</svg>
