<svg width="39" height="37" viewBox="0 0 39 37" fill="none" xmlns="http://www.w3.org/2000/svg">
<g filter="url(#filter0_d_2026_55)">
<ellipse cx="19.3137" cy="14.0261" rx="15.3137" ry="14.0261" fill="#FF8906"/>
<path d="M19.3135 0.5C27.5371 0.5 34.1279 6.59657 34.1279 14.0264C34.1277 21.456 27.537 27.5518 19.3135 27.5518C11.0901 27.5516 4.50019 21.456 4.5 14.0264C4.5 6.59664 11.09 0.500123 19.3135 0.5Z" stroke="black"/>
</g>
<path d="M23.0795 13H22.0227C21.9602 12.696 21.8509 12.429 21.6946 12.1989C21.5412 11.9688 21.3537 11.7756 21.1321 11.6193C20.9134 11.4602 20.6705 11.3409 20.4034 11.2614C20.1364 11.1818 19.858 11.142 19.5682 11.142C19.0398 11.142 18.5611 11.2756 18.1321 11.5426C17.706 11.8097 17.3665 12.2031 17.1136 12.723C16.8636 13.2429 16.7386 13.8807 16.7386 14.6364C16.7386 15.392 16.8636 16.0298 17.1136 16.5497C17.3665 17.0696 17.706 17.4631 18.1321 17.7301C18.5611 17.9972 19.0398 18.1307 19.5682 18.1307C19.858 18.1307 20.1364 18.0909 20.4034 18.0114C20.6705 17.9318 20.9134 17.8139 21.1321 17.6577C21.3537 17.4986 21.5412 17.304 21.6946 17.0739C21.8509 16.8409 21.9602 16.5739 22.0227 16.2727H23.0795C23 16.7187 22.8551 17.1179 22.6449 17.4702C22.4347 17.8224 22.1733 18.1222 21.8608 18.3693C21.5483 18.6136 21.1974 18.7997 20.8082 18.9276C20.4219 19.0554 20.0085 19.1193 19.5682 19.1193C18.8239 19.1193 18.1619 18.9375 17.5824 18.5739C17.0028 18.2102 16.5469 17.6932 16.2145 17.0227C15.8821 16.3523 15.7159 15.5568 15.7159 14.6364C15.7159 13.7159 15.8821 12.9205 16.2145 12.25C16.5469 11.5795 17.0028 11.0625 17.5824 10.6989C18.1619 10.3352 18.8239 10.1534 19.5682 10.1534C20.0085 10.1534 20.4219 10.2173 20.8082 10.3452C21.1974 10.473 21.5483 10.6605 21.8608 10.9077C22.1733 11.152 22.4347 11.4503 22.6449 11.8026C22.8551 12.152 23 12.5511 23.0795 13Z" fill="black"/>
<defs>
<filter id="filter0_d_2026_55" x="0" y="0" width="38.6274" height="36.0521" filterUnits="userSpaceOnUse" color-interpolation-filters="sRGB">
<feFlood flood-opacity="0" result="BackgroundImageFix"/>
<feColorMatrix in="SourceAlpha" type="matrix" values="0 0 0 0 0 0 0 0 0 0 0 0 0 0 0 0 0 0 127 0" result="hardAlpha"/>
<feOffset dy="4"/>
<feGaussianBlur stdDeviation="2"/>
<feComposite in2="hardAlpha" operator="out"/>
<feColorMatrix type="matrix" values="0 0 0 0 0 0 0 0 0 0 0 0 0 0 0 0 0 0 0.25 0"/>
<feBlend mode="normal" in2="BackgroundImageFix" result="effect1_dropShadow_2026_55"/>
<feBlend mode="normal" in="SourceGraphic" in2="effect1_dropShadow_2026_55" result="shape"/>
</filter>
</defs>
</svg>
