<svg width="39" height="37" viewBox="0 0 39 37" fill="none" xmlns="http://www.w3.org/2000/svg">
<g filter="url(#filter0_d_2026_26)">
<ellipse cx="19.3137" cy="14.0261" rx="15.3137" ry="14.0261" fill="#FF8906"/>
<path d="M19.3135 0.5C27.5371 0.5 34.1279 6.59657 34.1279 14.0264C34.1277 21.456 27.537 27.5518 19.3135 27.5518C11.0901 27.5516 4.50019 21.456 4.5 14.0264C4.5 6.59664 11.09 0.500123 19.3135 0.5Z" stroke="black"/>
</g>
<path d="M17.4375 12.5C17.3516 12.237 17.2383 12.0013 17.0977 11.793C16.9596 11.582 16.7943 11.4023 16.6016 11.2539C16.4115 11.1055 16.1953 10.9922 15.9531 10.9141C15.7109 10.8359 15.4453 10.7969 15.1562 10.7969C14.6823 10.7969 14.2513 10.9193 13.8633 11.1641C13.4753 11.4089 13.1667 11.7695 12.9375 12.2461C12.7083 12.7227 12.5938 13.3073 12.5938 14C12.5938 14.6927 12.7096 15.2773 12.9414 15.7539C13.1732 16.2305 13.487 16.5911 13.8828 16.8359C14.2786 17.0807 14.724 17.2031 15.2188 17.2031C15.6771 17.2031 16.0807 17.1055 16.4297 16.9102C16.7813 16.7122 17.0547 16.4336 17.25 16.0742C17.4479 15.7122 17.5469 15.2865 17.5469 14.7969L17.8438 14.8594H15.4375V14H18.4844V14.8594C18.4844 15.5182 18.3438 16.0911 18.0625 16.5781C17.7839 17.0651 17.3984 17.4427 16.9062 17.7109C16.4167 17.9766 15.8542 18.1094 15.2188 18.1094C14.5104 18.1094 13.888 17.9427 13.3516 17.6094C12.8177 17.276 12.401 16.8021 12.1016 16.1875C11.8047 15.5729 11.6563 14.8437 11.6563 14C11.6563 13.3672 11.7409 12.7982 11.9102 12.293C12.082 11.7852 12.3242 11.3529 12.6367 10.9961C12.9492 10.6393 13.319 10.3659 13.7461 10.1758C14.1732 9.98568 14.6432 9.89062 15.1562 9.89062C15.5781 9.89062 15.9714 9.95443 16.3359 10.082C16.7031 10.207 17.0299 10.3854 17.3164 10.6172C17.6055 10.8464 17.8464 11.1211 18.0391 11.4414C18.2318 11.7591 18.3646 12.112 18.4375 12.5H17.4375ZM23.0029 18L24.3154 10H25.0967L23.7842 18H23.0029ZM19.3623 15.7812L19.4873 15H25.4561L25.3311 15.7812H19.3623ZM20.1904 18L21.5029 10H22.2842L20.9717 18H20.1904ZM19.8311 13L19.9561 12.2187H25.9248L25.7998 13H19.8311Z" fill="black"/>
<defs>
<filter id="filter0_d_2026_26" x="0" y="0" width="38.6274" height="36.0521" filterUnits="userSpaceOnUse" color-interpolation-filters="sRGB">
<feFlood flood-opacity="0" result="BackgroundImageFix"/>
<feColorMatrix in="SourceAlpha" type="matrix" values="0 0 0 0 0 0 0 0 0 0 0 0 0 0 0 0 0 0 127 0" result="hardAlpha"/>
<feOffset dy="4"/>
<feGaussianBlur stdDeviation="2"/>
<feComposite in2="hardAlpha" operator="out"/>
<feColorMatrix type="matrix" values="0 0 0 0 0 0 0 0 0 0 0 0 0 0 0 0 0 0 0.25 0"/>
<feBlend mode="normal" in2="BackgroundImageFix" result="effect1_dropShadow_2026_26"/>
<feBlend mode="normal" in="SourceGraphic" in2="effect1_dropShadow_2026_26" result="shape"/>
</filter>
</defs>
</svg>
