<svg width="39" height="37" viewBox="0 0 39 37" fill="none" xmlns="http://www.w3.org/2000/svg">
<g filter="url(#filter0_d_2026_93)">
<ellipse cx="19.3137" cy="14.0261" rx="15.3137" ry="14.0261" fill="#FF8906"/>
<path d="M19.3135 0.5C27.5371 0.5 34.1279 6.59657 34.1279 14.0264C34.1277 21.456 27.537 27.5518 19.3135 27.5518C11.0901 27.5516 4.50019 21.456 4.5 14.0264C4.5 6.59664 11.09 0.500123 19.3135 0.5Z" stroke="black"/>
</g>
<path d="M23.4063 12.5H22.4375C22.3802 12.2214 22.2799 11.9766 22.1367 11.7656C21.9961 11.5547 21.8242 11.3776 21.6211 11.2344C21.4206 11.0885 21.1979 10.9792 20.9531 10.9062C20.7083 10.8333 20.4531 10.7969 20.1875 10.7969C19.7031 10.7969 19.2643 10.9193 18.8711 11.1641C18.4805 11.4089 18.1693 11.7695 17.9375 12.2461C17.7083 12.7227 17.5938 13.3073 17.5938 14C17.5938 14.6927 17.7083 15.2773 17.9375 15.7539C18.1693 16.2305 18.4805 16.5911 18.8711 16.8359C19.2643 17.0807 19.7031 17.2031 20.1875 17.2031C20.4531 17.2031 20.7083 17.1667 20.9531 17.0937C21.1979 17.0208 21.4206 16.9128 21.6211 16.7695C21.8242 16.6237 21.9961 16.4453 22.1367 16.2344C22.2799 16.0208 22.3802 15.776 22.4375 15.5H23.4063C23.3333 15.9089 23.2005 16.2747 23.0078 16.5977C22.8151 16.9206 22.5755 17.1953 22.2891 17.4219C22.0026 17.6458 21.681 17.8164 21.3242 17.9336C20.9701 18.0508 20.5911 18.1094 20.1875 18.1094C19.5052 18.1094 18.8984 17.9427 18.3672 17.6094C17.8359 17.276 17.418 16.8021 17.1133 16.1875C16.8086 15.5729 16.6563 14.8437 16.6563 14C16.6563 13.1562 16.8086 12.4271 17.1133 11.8125C17.418 11.1979 17.8359 10.724 18.3672 10.3906C18.8984 10.0573 19.5052 9.89062 20.1875 9.89062C20.5911 9.89062 20.9701 9.94922 21.3242 10.0664C21.681 10.1836 22.0026 10.3555 22.2891 10.582C22.5755 10.806 22.8151 11.0794 23.0078 11.4023C23.2005 11.7227 23.3333 12.0885 23.4063 12.5Z" fill="black"/>
<defs>
<filter id="filter0_d_2026_93" x="0" y="0" width="38.6274" height="36.0521" filterUnits="userSpaceOnUse" color-interpolation-filters="sRGB">
<feFlood flood-opacity="0" result="BackgroundImageFix"/>
<feColorMatrix in="SourceAlpha" type="matrix" values="0 0 0 0 0 0 0 0 0 0 0 0 0 0 0 0 0 0 127 0" result="hardAlpha"/>
<feOffset dy="4"/>
<feGaussianBlur stdDeviation="2"/>
<feComposite in2="hardAlpha" operator="out"/>
<feColorMatrix type="matrix" values="0 0 0 0 0 0 0 0 0 0 0 0 0 0 0 0 0 0 0.25 0"/>
<feBlend mode="normal" in2="BackgroundImageFix" result="effect1_dropShadow_2026_93"/>
<feBlend mode="normal" in="SourceGraphic" in2="effect1_dropShadow_2026_93" result="shape"/>
</filter>
</defs>
</svg>
