<svg width="39" height="37" viewBox="0 0 39 37" fill="none" xmlns="http://www.w3.org/2000/svg">
<g filter="url(#filter0_d_2026_60)">
<ellipse cx="19.3137" cy="14.0261" rx="15.3137" ry="14.0261" fill="#FF8906"/>
<path d="M19.3135 0.5C27.5371 0.5 34.1279 6.59657 34.1279 14.0264C34.1277 21.456 27.537 27.5518 19.3135 27.5518C11.0901 27.5516 4.50019 21.456 4.5 14.0264C4.5 6.59664 11.09 0.500123 19.3135 0.5Z" stroke="black"/>
</g>
<path d="M13.9688 18V10H18.7656V10.8594H14.9375V13.5625H18.4063V14.4219H14.9375V18H13.9688ZM23.2842 18L24.5967 10H25.3779L24.0654 18H23.2842ZM19.6436 15.7812L19.7686 15H25.7373L25.6123 15.7812H19.6436ZM20.4717 18L21.7842 10H22.5654L21.2529 18H20.4717ZM20.1123 13L20.2373 12.2187H26.2061L26.0811 13H20.1123Z" fill="black"/>
<defs>
<filter id="filter0_d_2026_60" x="0" y="0" width="38.6274" height="36.0521" filterUnits="userSpaceOnUse" color-interpolation-filters="sRGB">
<feFlood flood-opacity="0" result="BackgroundImageFix"/>
<feColorMatrix in="SourceAlpha" type="matrix" values="0 0 0 0 0 0 0 0 0 0 0 0 0 0 0 0 0 0 127 0" result="hardAlpha"/>
<feOffset dy="4"/>
<feGaussianBlur stdDeviation="2"/>
<feComposite in2="hardAlpha" operator="out"/>
<feColorMatrix type="matrix" values="0 0 0 0 0 0 0 0 0 0 0 0 0 0 0 0 0 0 0.25 0"/>
<feBlend mode="normal" in2="BackgroundImageFix" result="effect1_dropShadow_2026_60"/>
<feBlend mode="normal" in="SourceGraphic" in2="effect1_dropShadow_2026_60" result="shape"/>
</filter>
</defs>
</svg>
