<svg width="39" height="37" viewBox="0 0 39 37" fill="none" xmlns="http://www.w3.org/2000/svg">
<g filter="url(#filter0_d_2026_65)">
<ellipse cx="19.3137" cy="14.0261" rx="15.3137" ry="14.0261" fill="#FF8906"/>
<path d="M19.3135 0.5C27.5371 0.5 34.1279 6.59657 34.1279 14.0264C34.1277 21.456 27.537 27.5518 19.3135 27.5518C11.0901 27.5516 4.50019 21.456 4.5 14.0264C4.5 6.59664 11.09 0.500123 19.3135 0.5Z" stroke="black"/>
</g>
<path d="M23.4063 13.5H22.4375C22.3802 13.2214 22.2799 12.9766 22.1367 12.7656C21.9961 12.5547 21.8242 12.3776 21.6211 12.2344C21.4206 12.0885 21.1979 11.9792 20.9531 11.9062C20.7083 11.8333 20.4531 11.7969 20.1875 11.7969C19.7031 11.7969 19.2643 11.9193 18.8711 12.1641C18.4805 12.4089 18.1693 12.7695 17.9375 13.2461C17.7083 13.7227 17.5938 14.3073 17.5938 15C17.5938 15.6927 17.7083 16.2773 17.9375 16.7539C18.1693 17.2305 18.4805 17.5911 18.8711 17.8359C19.2643 18.0807 19.7031 18.2031 20.1875 18.2031C20.4531 18.2031 20.7083 18.1667 20.9531 18.0937C21.1979 18.0208 21.4206 17.9128 21.6211 17.7695C21.8242 17.6237 21.9961 17.4453 22.1367 17.2344C22.2799 17.0208 22.3802 16.776 22.4375 16.5H23.4063C23.3333 16.9089 23.2005 17.2747 23.0078 17.5977C22.8151 17.9206 22.5755 18.1953 22.2891 18.4219C22.0026 18.6458 21.681 18.8164 21.3242 18.9336C20.9701 19.0508 20.5911 19.1094 20.1875 19.1094C19.5052 19.1094 18.8984 18.9427 18.3672 18.6094C17.8359 18.276 17.418 17.8021 17.1133 17.1875C16.8086 16.5729 16.6563 15.8437 16.6563 15C16.6563 14.1562 16.8086 13.4271 17.1133 12.8125C17.418 12.1979 17.8359 11.724 18.3672 11.3906C18.8984 11.0573 19.5052 10.8906 20.1875 10.8906C20.5911 10.8906 20.9701 10.9492 21.3242 11.0664C21.681 11.1836 22.0026 11.3555 22.2891 11.582C22.5755 11.806 22.8151 12.0794 23.0078 12.4023C23.2005 12.7227 23.3333 13.0885 23.4063 13.5Z" fill="black"/>
<defs>
<filter id="filter0_d_2026_65" x="0" y="0" width="38.6274" height="36.0521" filterUnits="userSpaceOnUse" color-interpolation-filters="sRGB">
<feFlood flood-opacity="0" result="BackgroundImageFix"/>
<feColorMatrix in="SourceAlpha" type="matrix" values="0 0 0 0 0 0 0 0 0 0 0 0 0 0 0 0 0 0 127 0" result="hardAlpha"/>
<feOffset dy="4"/>
<feGaussianBlur stdDeviation="2"/>
<feComposite in2="hardAlpha" operator="out"/>
<feColorMatrix type="matrix" values="0 0 0 0 0 0 0 0 0 0 0 0 0 0 0 0 0 0 0.25 0"/>
<feBlend mode="normal" in2="BackgroundImageFix" result="effect1_dropShadow_2026_65"/>
<feBlend mode="normal" in="SourceGraphic" in2="effect1_dropShadow_2026_65" result="shape"/>
</filter>
</defs>
</svg>
