<svg width="39" height="37" viewBox="0 0 39 37" fill="none" xmlns="http://www.w3.org/2000/svg">
<g filter="url(#filter0_d_2026_6)">
<ellipse cx="19.3137" cy="14.0261" rx="15.3137" ry="14.0261" fill="#FF8906"/>
<path d="M19.3135 0.5C27.5371 0.5 34.1279 6.59657 34.1279 14.0264C34.1277 21.456 27.537 27.5518 19.3135 27.5518C11.0901 27.5516 4.50019 21.456 4.5 14.0264C4.5 6.59664 11.09 0.500123 19.3135 0.5Z" stroke="black"/>
</g>
<path d="M17.0568 18V9.27273H20.108C20.7159 9.27273 21.2173 9.37784 21.6122 9.58807C22.0071 9.79545 22.3011 10.0753 22.4943 10.4276C22.6875 10.777 22.7841 11.1648 22.7841 11.5909C22.7841 11.9659 22.7173 12.2756 22.5838 12.5199C22.4531 12.7642 22.2798 12.9574 22.0639 13.0994C21.8509 13.2415 21.6193 13.3466 21.3693 13.4148V13.5C21.6364 13.517 21.9048 13.6108 22.1747 13.7812C22.4446 13.9517 22.6705 14.196 22.8523 14.5142C23.0341 14.8324 23.125 15.2216 23.125 15.6818C23.125 16.1193 23.0256 16.5128 22.8267 16.8622C22.6278 17.2116 22.3139 17.4886 21.8849 17.6932C21.456 17.8977 20.8977 18 20.2102 18H17.0568ZM18.1136 17.0625H20.2102C20.9006 17.0625 21.3906 16.929 21.6804 16.6619C21.973 16.392 22.1193 16.0653 22.1193 15.6818C22.1193 15.3864 22.044 15.1136 21.8935 14.8636C21.7429 14.6108 21.5284 14.4091 21.25 14.2585C20.9716 14.1051 20.642 14.0284 20.2614 14.0284H18.1136V17.0625ZM18.1136 13.108H20.0739C20.392 13.108 20.679 13.0455 20.9347 12.9205C21.1932 12.7955 21.3977 12.6193 21.5483 12.392C21.7017 12.1648 21.7784 11.8977 21.7784 11.5909C21.7784 11.2074 21.6449 10.8821 21.3778 10.6151C21.1108 10.3452 20.6875 10.2102 20.108 10.2102H18.1136V13.108Z" fill="black"/>
<defs>
<filter id="filter0_d_2026_6" x="0" y="0" width="38.6274" height="36.0521" filterUnits="userSpaceOnUse" color-interpolation-filters="sRGB">
<feFlood flood-opacity="0" result="BackgroundImageFix"/>
<feColorMatrix in="SourceAlpha" type="matrix" values="0 0 0 0 0 0 0 0 0 0 0 0 0 0 0 0 0 0 127 0" result="hardAlpha"/>
<feOffset dy="4"/>
<feGaussianBlur stdDeviation="2"/>
<feComposite in2="hardAlpha" operator="out"/>
<feColorMatrix type="matrix" values="0 0 0 0 0 0 0 0 0 0 0 0 0 0 0 0 0 0 0.25 0"/>
<feBlend mode="normal" in2="BackgroundImageFix" result="effect1_dropShadow_2026_6"/>
<feBlend mode="normal" in="SourceGraphic" in2="effect1_dropShadow_2026_6" result="shape"/>
</filter>
</defs>
</svg>
