<svg width="39" height="37" viewBox="0 0 39 37" fill="none" xmlns="http://www.w3.org/2000/svg">
<g filter="url(#filter0_d_2026_98)">
<ellipse cx="19.3137" cy="14.0261" rx="15.3137" ry="14.0261" fill="#FF8906"/>
<path d="M19.3135 0.5C27.5371 0.5 34.1279 6.59657 34.1279 14.0264C34.1277 21.456 27.537 27.5518 19.3135 27.5518C11.0901 27.5516 4.50019 21.456 4.5 14.0264C4.5 6.59664 11.09 0.500123 19.3135 0.5Z" stroke="black"/>
</g>
<path d="M18.0227 13C17.929 12.7131 17.8054 12.456 17.652 12.2287C17.5014 11.9986 17.321 11.8026 17.1108 11.6406C16.9034 11.4787 16.6676 11.3551 16.4034 11.2699C16.1392 11.1847 15.8494 11.142 15.5341 11.142C15.017 11.142 14.5469 11.2756 14.1236 11.5426C13.7003 11.8097 13.3636 12.2031 13.1136 12.723C12.8636 13.2429 12.7386 13.8807 12.7386 14.6364C12.7386 15.392 12.8651 16.0298 13.1179 16.5497C13.3707 17.0696 13.7131 17.4631 14.1449 17.7301C14.5767 17.9972 15.0625 18.1307 15.6023 18.1307C16.1023 18.1307 16.5426 18.0241 16.9233 17.8111C17.3068 17.5952 17.6051 17.2912 17.8182 16.8991C18.0341 16.5043 18.142 16.0398 18.142 15.5057L18.4659 15.5739H15.8409V14.6364H19.1648V15.5739C19.1648 16.2926 19.0114 16.9176 18.7045 17.4489C18.4006 17.9801 17.9801 18.392 17.4432 18.6847C16.9091 18.9744 16.2955 19.1193 15.6023 19.1193C14.8295 19.1193 14.1506 18.9375 13.5653 18.5739C12.983 18.2102 12.5284 17.6932 12.2017 17.0227C11.8778 16.3523 11.7159 15.5568 11.7159 14.6364C11.7159 13.946 11.8082 13.3253 11.9929 12.7741C12.1804 12.2202 12.4446 11.7486 12.7855 11.3594C13.1264 10.9702 13.5298 10.6719 13.9957 10.4645C14.4616 10.2571 14.9744 10.1534 15.5341 10.1534C15.9943 10.1534 16.4233 10.223 16.821 10.3622C17.2216 10.4986 17.5781 10.6932 17.8906 10.946C18.206 11.196 18.4688 11.4957 18.679 11.8452C18.8892 12.1918 19.0341 12.5767 19.1136 13H18.0227ZM24.0941 19L25.5259 10.2727H26.3782L24.9464 19H24.0941ZM20.1225 16.5795L20.2589 15.7273H26.7702L26.6339 16.5795H20.1225ZM21.0259 19L22.4577 10.2727H23.31L21.8782 19H21.0259ZM20.6339 13.5455L20.7702 12.6932H27.2816L27.1452 13.5455H20.6339Z" fill="black"/>
<defs>
<filter id="filter0_d_2026_98" x="0" y="0" width="38.6274" height="36.0521" filterUnits="userSpaceOnUse" color-interpolation-filters="sRGB">
<feFlood flood-opacity="0" result="BackgroundImageFix"/>
<feColorMatrix in="SourceAlpha" type="matrix" values="0 0 0 0 0 0 0 0 0 0 0 0 0 0 0 0 0 0 127 0" result="hardAlpha"/>
<feOffset dy="4"/>
<feGaussianBlur stdDeviation="2"/>
<feComposite in2="hardAlpha" operator="out"/>
<feColorMatrix type="matrix" values="0 0 0 0 0 0 0 0 0 0 0 0 0 0 0 0 0 0 0.25 0"/>
<feBlend mode="normal" in2="BackgroundImageFix" result="effect1_dropShadow_2026_98"/>
<feBlend mode="normal" in="SourceGraphic" in2="effect1_dropShadow_2026_98" result="shape"/>
</filter>
</defs>
</svg>
