<svg width="39" height="37" viewBox="0 0 39 37" fill="none" xmlns="http://www.w3.org/2000/svg">
<g filter="url(#filter0_d_2026_45)">
<ellipse cx="19.3137" cy="14.0261" rx="15.3137" ry="14.0261" fill="#FF8906"/>
<path d="M19.3135 0.5C27.5371 0.5 34.1279 6.59657 34.1279 14.0264C34.1277 21.456 27.537 27.5518 19.3135 27.5518C11.0901 27.5516 4.50019 21.456 4.5 14.0264C4.5 6.59664 11.09 0.500123 19.3135 0.5Z" stroke="black"/>
</g>
<path d="M14.0568 19V10.2727H19.2898V11.2102H15.1136V14.1591H18.8977V15.0966H15.1136V19H14.0568ZM24.2191 19L25.6509 10.2727H26.5032L25.0714 19H24.2191ZM20.2475 16.5795L20.3839 15.7273H26.8952L26.7589 16.5795H20.2475ZM21.1509 19L22.5827 10.2727H23.435L22.0032 19H21.1509ZM20.7589 13.5455L20.8952 12.6932H27.4066L27.2702 13.5455H20.7589Z" fill="black"/>
<defs>
<filter id="filter0_d_2026_45" x="0" y="0" width="38.6274" height="36.0521" filterUnits="userSpaceOnUse" color-interpolation-filters="sRGB">
<feFlood flood-opacity="0" result="BackgroundImageFix"/>
<feColorMatrix in="SourceAlpha" type="matrix" values="0 0 0 0 0 0 0 0 0 0 0 0 0 0 0 0 0 0 127 0" result="hardAlpha"/>
<feOffset dy="4"/>
<feGaussianBlur stdDeviation="2"/>
<feComposite in2="hardAlpha" operator="out"/>
<feColorMatrix type="matrix" values="0 0 0 0 0 0 0 0 0 0 0 0 0 0 0 0 0 0 0.25 0"/>
<feBlend mode="normal" in2="BackgroundImageFix" result="effect1_dropShadow_2026_45"/>
<feBlend mode="normal" in="SourceGraphic" in2="effect1_dropShadow_2026_45" result="shape"/>
</filter>
</defs>
</svg>
