<svg width="39" height="37" viewBox="0 0 39 37" fill="none" xmlns="http://www.w3.org/2000/svg">
<g filter="url(#filter0_d_2026_68)">
<ellipse cx="19.3137" cy="14.0261" rx="15.3137" ry="14.0261" fill="#FF8906"/>
<path d="M19.3135 0.5C27.5371 0.5 34.1279 6.59657 34.1279 14.0264C34.1277 21.456 27.537 27.5518 19.3135 27.5518C11.0901 27.5516 4.50019 21.456 4.5 14.0264C4.5 6.59664 11.09 0.500123 19.3135 0.5Z" stroke="black"/>
</g>
<path d="M15.75 18H13.0568V9.27273H15.8693C16.7159 9.27273 17.4403 9.44744 18.0426 9.79688C18.6449 10.1435 19.1065 10.642 19.4276 11.2926C19.7486 11.9403 19.9091 12.7159 19.9091 13.6193C19.9091 14.5284 19.7472 15.3111 19.4233 15.9673C19.0994 16.6207 18.6278 17.1236 18.0085 17.4759C17.3892 17.8253 16.6364 18 15.75 18ZM14.1136 17.0625H15.6818C16.4034 17.0625 17.0014 16.9233 17.4759 16.6449C17.9503 16.3665 18.304 15.9702 18.5369 15.456C18.7699 14.9418 18.8864 14.3295 18.8864 13.6193C18.8864 12.9148 18.7713 12.3082 18.5412 11.7997C18.3111 11.2884 17.9673 10.8963 17.5099 10.6236C17.0526 10.348 16.483 10.2102 15.8011 10.2102H14.1136V17.0625ZM24.8011 18L26.233 9.27273H27.0852L25.6534 18H24.8011ZM20.8295 15.5795L20.9659 14.7273H27.4773L27.3409 15.5795H20.8295ZM21.733 18L23.1648 9.27273H24.017L22.5852 18H21.733ZM21.3409 12.5455L21.4773 11.6932H27.9886L27.8523 12.5455H21.3409Z" fill="black"/>
<defs>
<filter id="filter0_d_2026_68" x="0" y="0" width="38.6274" height="36.0521" filterUnits="userSpaceOnUse" color-interpolation-filters="sRGB">
<feFlood flood-opacity="0" result="BackgroundImageFix"/>
<feColorMatrix in="SourceAlpha" type="matrix" values="0 0 0 0 0 0 0 0 0 0 0 0 0 0 0 0 0 0 127 0" result="hardAlpha"/>
<feOffset dy="4"/>
<feGaussianBlur stdDeviation="2"/>
<feComposite in2="hardAlpha" operator="out"/>
<feColorMatrix type="matrix" values="0 0 0 0 0 0 0 0 0 0 0 0 0 0 0 0 0 0 0.25 0"/>
<feBlend mode="normal" in2="BackgroundImageFix" result="effect1_dropShadow_2026_68"/>
<feBlend mode="normal" in="SourceGraphic" in2="effect1_dropShadow_2026_68" result="shape"/>
</filter>
</defs>
</svg>
