<svg width="39" height="37" viewBox="0 0 39 37" fill="none" xmlns="http://www.w3.org/2000/svg">
<g filter="url(#filter0_d_2026_56)">
<ellipse cx="19.3137" cy="14.0261" rx="15.3137" ry="14.0261" fill="#FF8906"/>
<path d="M19.3135 0.5C27.5371 0.5 34.1279 6.59657 34.1279 14.0264C34.1277 21.456 27.537 27.5518 19.3135 27.5518C11.0901 27.5516 4.50019 21.456 4.5 14.0264C4.5 6.59664 11.09 0.500123 19.3135 0.5Z" stroke="black"/>
</g>
<path d="M20.0795 13H19.0227C18.9602 12.696 18.8509 12.429 18.6946 12.1989C18.5412 11.9688 18.3537 11.7756 18.1321 11.6193C17.9134 11.4602 17.6705 11.3409 17.4034 11.2614C17.1364 11.1818 16.858 11.142 16.5682 11.142C16.0398 11.142 15.5611 11.2756 15.1321 11.5426C14.706 11.8097 14.3665 12.2031 14.1136 12.723C13.8636 13.2429 13.7386 13.8807 13.7386 14.6364C13.7386 15.392 13.8636 16.0298 14.1136 16.5497C14.3665 17.0696 14.706 17.4631 15.1321 17.7301C15.5611 17.9972 16.0398 18.1307 16.5682 18.1307C16.858 18.1307 17.1364 18.0909 17.4034 18.0114C17.6705 17.9318 17.9134 17.8139 18.1321 17.6577C18.3537 17.4986 18.5412 17.304 18.6946 17.0739C18.8509 16.8409 18.9602 16.5739 19.0227 16.2727H20.0795C20 16.7187 19.8551 17.1179 19.6449 17.4702C19.4347 17.8224 19.1733 18.1222 18.8608 18.3693C18.5483 18.6136 18.1974 18.7997 17.8082 18.9276C17.4219 19.0554 17.0085 19.1193 16.5682 19.1193C15.8239 19.1193 15.1619 18.9375 14.5824 18.5739C14.0028 18.2102 13.5469 17.6932 13.2145 17.0227C12.8821 16.3523 12.7159 15.5568 12.7159 14.6364C12.7159 13.7159 12.8821 12.9205 13.2145 12.25C13.5469 11.5795 14.0028 11.0625 14.5824 10.6989C15.1619 10.3352 15.8239 10.1534 16.5682 10.1534C17.0085 10.1534 17.4219 10.2173 17.8082 10.3452C18.1974 10.473 18.5483 10.6605 18.8608 10.9077C19.1733 11.152 19.4347 11.4503 19.6449 11.8026C19.8551 12.152 20 12.5511 20.0795 13ZM24.9066 19L26.3384 10.2727H27.1907L25.7589 19H24.9066ZM20.935 16.5795L21.0714 15.7273H27.5827L27.4464 16.5795H20.935ZM21.8384 19L23.2702 10.2727H24.1225L22.6907 19H21.8384ZM21.4464 13.5455L21.5827 12.6932H28.0941L27.9577 13.5455H21.4464Z" fill="black"/>
<defs>
<filter id="filter0_d_2026_56" x="0" y="0" width="38.6274" height="36.0521" filterUnits="userSpaceOnUse" color-interpolation-filters="sRGB">
<feFlood flood-opacity="0" result="BackgroundImageFix"/>
<feColorMatrix in="SourceAlpha" type="matrix" values="0 0 0 0 0 0 0 0 0 0 0 0 0 0 0 0 0 0 127 0" result="hardAlpha"/>
<feOffset dy="4"/>
<feGaussianBlur stdDeviation="2"/>
<feComposite in2="hardAlpha" operator="out"/>
<feColorMatrix type="matrix" values="0 0 0 0 0 0 0 0 0 0 0 0 0 0 0 0 0 0 0.25 0"/>
<feBlend mode="normal" in2="BackgroundImageFix" result="effect1_dropShadow_2026_56"/>
<feBlend mode="normal" in="SourceGraphic" in2="effect1_dropShadow_2026_56" result="shape"/>
</filter>
</defs>
</svg>
